<?xml version="1.0" encoding="UTF-8" standalone="no"?>
<!DOCTYPE svg PUBLIC "-//W3C//DTD SVG 1.1//EN"
 "http://www.w3.org/Graphics/SVG/1.1/DTD/svg11.dtd">
<!-- Generated by graphviz version 2.38.0 (20140413.2041)
 -->
<!-- Title: G Pages: 1 -->
<svg width="980pt" height="390pt"
 viewBox="0.00 0.00 980.00 390.00" xmlns="http://www.w3.org/2000/svg" xmlns:xlink="http://www.w3.org/1999/xlink">
<g id="graph0" class="graph" transform="scale(1 1) rotate(0) translate(4 386)">
<title>G</title>
<polygon fill="white" stroke="none" points="-4,4 -4,-386 976,-386 976,4 -4,4"/>
<!-- n_github_com_gofiber_fiber -->
<g id="node1" class="node"><title>n_github_com_gofiber_fiber</title>
<g id="a_node1"><a xlink:href="http://pkg.go.dev/github.com/gofiber/fiber" xlink:title="github.com/gofiber/fiber\l2286 / 67.9KB\l" target="_graphviz">
<polygon fill="none" stroke="#470791" stroke-width="2" stroke-opacity="0.698039" points="144,-328 0,-328 0,-292 144,-292 144,-328"/>
<text text-anchor="start" x="8" y="-313" font-family="Times New Roman,serif" font-size="10.00">github.com/gofiber/fiber</text>
<text text-anchor="start" x="8" y="-302" font-family="Times New Roman,serif" font-size="10.00">2286 / 67.9KB</text>
</a>
</g>
</g>
<!-- n_github_com_gorilla_schema -->
<g id="node2" class="node"><title>n_github_com_gorilla_schema</title>
<g id="a_node2"><a xlink:href="http://pkg.go.dev/github.com/gorilla/schema" xlink:title="github.com/gorilla/schema\l1303 / 34.7KB\l" target="_graphviz">
<polygon fill="none" stroke="#917407" stroke-width="2" stroke-opacity="0.698039" points="396,-382 252,-382 252,-346 396,-346 396,-382"/>
<text text-anchor="start" x="260" y="-367" font-family="Times New Roman,serif" font-size="10.00">github.com/gorilla/schema</text>
<text text-anchor="start" x="260" y="-356" font-family="Times New Roman,serif" font-size="10.00">1303 / 34.7KB</text>
</a>
</g>
</g>
<!-- n_github_com_gofiber_fiber&#45;&gt;n_github_com_gorilla_schema -->
<g id="edge2" class="edge"><title>n_github_com_gofiber_fiber:e&#45;&gt;n_github_com_gorilla_schema</title>
<path fill="none" stroke="#917407" stroke-width="2" stroke-opacity="0.698039" d="M144,-310C167.614,-310 222.206,-327.443 264.936,-342.501"/>
<polygon fill="#917407" fill-opacity="0.698039" stroke="#917407" stroke-width="2" stroke-opacity="0.698039" points="263.814,-345.817 274.409,-345.869 266.159,-339.221 263.814,-345.817"/>
</g>
<!-- n_github_com_json_iterator_go -->
<g id="node3" class="node"><title>n_github_com_json_iterator_go</title>
<g id="a_node3"><a xlink:href="http://pkg.go.dev/github.com/json-iterator/go" xlink:title="github.com/json&#45;iterator/go\l8931 / 217.4KB\l" target="_graphviz">
<polygon fill="none" stroke="#074891" stroke-width="2" stroke-opacity="0.698039" points="396,-328 252,-328 252,-292 396,-292 396,-328"/>
<text text-anchor="start" x="260" y="-313" font-family="Times New Roman,serif" font-size="10.00">github.com/json&#45;iterator/go</text>
<text text-anchor="start" x="260" y="-302" font-family="Times New Roman,serif" font-size="10.00">8931 / 217.4KB</text>
</a>
</g>
</g>
<!-- n_github_com_gofiber_fiber&#45;&gt;n_github_com_json_iterator_go -->
<g id="edge1" class="edge"><title>n_github_com_gofiber_fiber:e&#45;&gt;n_github_com_json_iterator_go</title>
<path fill="none" stroke="#074891" stroke-width="2" stroke-opacity="0.698039" d="M144,-310C175.829,-310 210.842,-310 241.396,-310"/>
<polygon fill="#074891" fill-opacity="0.698039" stroke="#074891" stroke-width="2" stroke-opacity="0.698039" points="241.575,-313.5 251.575,-310 241.575,-306.5 241.575,-313.5"/>
</g>
<!-- n_github_com_valyala_fasthttp -->
<g id="node10" class="node"><title>n_github_com_valyala_fasthttp</title>
<g id="a_node10"><a xlink:href="http://pkg.go.dev/github.com/valyala/fasthttp" xlink:title="github.com/valyala/fasthttp\l15018 / 406.1KB\l" target="_graphviz">
<polygon fill="none" stroke="#770791" stroke-width="2" stroke-opacity="0.698039" points="396,-182 252,-182 252,-146 396,-146 396,-182"/>
<text text-anchor="start" x="260" y="-167" font-family="Times New Roman,serif" font-size="10.00">github.com/valyala/fasthttp</text>
<text text-anchor="start" x="260" y="-156" font-family="Times New Roman,serif" font-size="10.00">15018 / 406.1KB</text>
</a>
</g>
</g>
<!-- n_github_com_gofiber_fiber&#45;&gt;n_github_com_valyala_fasthttp -->
<g id="edge3" class="edge"><title>n_github_com_gofiber_fiber:e&#45;&gt;n_github_com_valyala_fasthttp</title>
<path fill="none" stroke="#770791" stroke-width="2" stroke-opacity="0.698039" d="M144,-310C218.536,-310 279.195,-233.042 306.838,-190.872"/>
<polygon fill="#770791" fill-opacity="0.698039" stroke="#770791" stroke-width="2" stroke-opacity="0.698039" points="309.947,-192.507 312.383,-182.196 304.049,-188.738 309.947,-192.507"/>
</g>
<!-- n_github_com_modern_go_concurrent -->
<g id="node7" class="node"><title>n_github_com_modern_go_concurrent</title>
<g id="a_node7"><a xlink:href="http://pkg.go.dev/github.com/modern-go/concurrent" xlink:title="github.com/modern&#45;go/concurrent\l160 / 4.9KB\l" target="_graphviz">
<polygon fill="none" stroke="#91071e" stroke-width="2" stroke-opacity="0.698039" points="972,-351 792,-351 792,-315 972,-315 972,-351"/>
<text text-anchor="start" x="800" y="-336" font-family="Times New Roman,serif" font-size="10.00">github.com/modern&#45;go/concurrent</text>
<text text-anchor="start" x="800" y="-325" font-family="Times New Roman,serif" font-size="10.00">160 / 4.9KB</text>
</a>
</g>
</g>
<!-- n_github_com_json_iterator_go&#45;&gt;n_github_com_modern_go_concurrent -->
<g id="edge5" class="edge"><title>n_github_com_json_iterator_go:e&#45;&gt;n_github_com_modern_go_concurrent</title>
<path fill="none" stroke="#91071e" stroke-width="2" stroke-opacity="0.698039" d="M396,-310C445.477,-310 454.893,-330.955 504,-337 583.401,-346.775 604.004,-337.812 684,-337 715.792,-336.677 750.466,-336.062 781.738,-335.408"/>
<polygon fill="#91071e" fill-opacity="0.698039" stroke="#91071e" stroke-width="2" stroke-opacity="0.698039" points="781.841,-338.907 791.764,-335.195 781.692,-331.909 781.841,-338.907"/>
</g>
<!-- n_github_com_modern_go_reflect2 -->
<g id="node8" class="node"><title>n_github_com_modern_go_reflect2</title>
<g id="a_node8"><a xlink:href="http://pkg.go.dev/github.com/modern-go/reflect2" xlink:title="github.com/modern&#45;go/reflect2\l1658 / 45.1KB\l" target="_graphviz">
<polygon fill="none" stroke="#07913d" stroke-width="2" stroke-opacity="0.698039" points="666,-328 522,-328 522,-292 666,-292 666,-328"/>
<text text-anchor="start" x="530" y="-313" font-family="Times New Roman,serif" font-size="10.00">github.com/modern&#45;go/reflect2</text>
<text text-anchor="start" x="530" y="-302" font-family="Times New Roman,serif" font-size="10.00">1658 / 45.1KB</text>
</a>
</g>
</g>
<!-- n_github_com_json_iterator_go&#45;&gt;n_github_com_modern_go_reflect2 -->
<g id="edge4" class="edge"><title>n_github_com_json_iterator_go:e&#45;&gt;n_github_com_modern_go_reflect2</title>
<path fill="none" stroke="#07913d" stroke-width="2" stroke-opacity="0.698039" d="M396,-310C433.977,-310 476.072,-310 511.568,-310"/>
<polygon fill="#07913d" fill-opacity="0.698039" stroke="#07913d" stroke-width="2" stroke-opacity="0.698039" points="511.876,-313.5 521.876,-310 511.876,-306.5 511.876,-313.5"/>
</g>
<!-- n_github_com_klauspost_compress_flate -->
<g id="node4" class="node"><title>n_github_com_klauspost_compress_flate</title>
<g id="a_node4"><a xlink:href="http://pkg.go.dev/github.com/klauspost/compress/flate" xlink:title="github.com/klauspost/compress/flate\l6893 / 185.2KB\l" target="_graphviz">
<polygon fill="none" stroke="#077091" stroke-width="2" stroke-opacity="0.698039" points="972,-236 792,-236 792,-200 972,-200 972,-236"/>
<text text-anchor="start" x="800" y="-221" font-family="Times New Roman,serif" font-size="10.00">github.com/klauspost/compress/flate</text>
<text text-anchor="start" x="800" y="-210" font-family="Times New Roman,serif" font-size="10.00">6893 / 185.2KB</text>
</a>
</g>
</g>
<!-- n_github_com_klauspost_compress_gzip -->
<g id="node5" class="node"><title>n_github_com_klauspost_compress_gzip</title>
<g id="a_node5"><a xlink:href="http://pkg.go.dev/github.com/klauspost/compress/gzip" xlink:title="github.com/klauspost/compress/gzip\l613 / 16.9KB\l" target="_graphviz">
<polygon fill="none" stroke="#869107" stroke-width="2" stroke-opacity="0.698039" points="684,-236 504,-236 504,-200 684,-200 684,-236"/>
<text text-anchor="start" x="512" y="-221" font-family="Times New Roman,serif" font-size="10.00">github.com/klauspost/compress/gzip</text>
<text text-anchor="start" x="512" y="-210" font-family="Times New Roman,serif" font-size="10.00">613 / 16.9KB</text>
</a>
</g>
</g>
<!-- n_github_com_klauspost_compress_gzip&#45;&gt;n_github_com_klauspost_compress_flate -->
<g id="edge6" class="edge"><title>n_github_com_klauspost_compress_gzip:e&#45;&gt;n_github_com_klauspost_compress_flate</title>
<path fill="none" stroke="#077091" stroke-width="2" stroke-opacity="0.698039" d="M684,-218C715.787,-218 750.46,-218 781.732,-218"/>
<polygon fill="#077091" fill-opacity="0.698039" stroke="#077091" stroke-width="2" stroke-opacity="0.698039" points="781.759,-221.5 791.758,-218 781.758,-214.5 781.759,-221.5"/>
</g>
<!-- n_github_com_klauspost_compress_zlib -->
<g id="node6" class="node"><title>n_github_com_klauspost_compress_zlib</title>
<g id="a_node6"><a xlink:href="http://pkg.go.dev/github.com/klauspost/compress/zlib" xlink:title="github.com/klauspost/compress/zlib\l384 / 10.6KB\l" target="_graphviz">
<polygon fill="none" stroke="#220791" stroke-width="2" stroke-opacity="0.698039" points="684,-182 504,-182 504,-146 684,-146 684,-182"/>
<text text-anchor="start" x="512" y="-167" font-family="Times New Roman,serif" font-size="10.00">github.com/klauspost/compress/zlib</text>
<text text-anchor="start" x="512" y="-156" font-family="Times New Roman,serif" font-size="10.00">384 / 10.6KB</text>
</a>
</g>
</g>
<!-- n_github_com_klauspost_compress_zlib&#45;&gt;n_github_com_klauspost_compress_flate -->
<g id="edge7" class="edge"><title>n_github_com_klauspost_compress_zlib:e&#45;&gt;n_github_com_klauspost_compress_flate</title>
<path fill="none" stroke="#077091" stroke-width="2" stroke-opacity="0.698039" d="M684,-164C735.164,-164 791.228,-181.151 830.419,-196.121"/>
<polygon fill="#077091" fill-opacity="0.698039" stroke="#077091" stroke-width="2" stroke-opacity="0.698039" points="829.418,-199.488 840.006,-199.869 831.966,-192.968 829.418,-199.488"/>
</g>
<!-- n_github_com_modern_go_reflect2&#45;&gt;n_github_com_modern_go_concurrent -->
<g id="edge8" class="edge"><title>n_github_com_modern_go_reflect2:e&#45;&gt;n_github_com_modern_go_concurrent</title>
<path fill="none" stroke="#91071e" stroke-width="2" stroke-opacity="0.698039" d="M667,-310C704.656,-310 745.828,-313.564 781.912,-317.886"/>
<polygon fill="#91071e" fill-opacity="0.698039" stroke="#91071e" stroke-width="2" stroke-opacity="0.698039" points="781.594,-321.374 791.947,-319.123 782.45,-314.426 781.594,-321.374"/>
</g>
<!-- n_github_com_valyala_bytebufferpool -->
<g id="node9" class="node"><title>n_github_com_valyala_bytebufferpool</title>
<g id="a_node9"><a xlink:href="http://pkg.go.dev/github.com/valyala/bytebufferpool" xlink:title="github.com/valyala/bytebufferpool\l269 / 5.8KB\l" target="_graphviz">
<polygon fill="none" stroke="#079150" stroke-width="2" stroke-opacity="0.698039" points="972,-86 792,-86 792,-50 972,-50 972,-86"/>
<text text-anchor="start" x="800" y="-71" font-family="Times New Roman,serif" font-size="10.00">github.com/valyala/bytebufferpool</text>
<text text-anchor="start" x="800" y="-60" font-family="Times New Roman,serif" font-size="10.00">269 / 5.8KB</text>
</a>
</g>
</g>
<!-- n_github_com_valyala_fasthttp&#45;&gt;n_github_com_klauspost_compress_flate -->
<g id="edge10" class="edge"><title>n_github_com_valyala_fasthttp:e&#45;&gt;n_github_com_klauspost_compress_flate</title>
<path fill="none" stroke="#077091" stroke-width="2" stroke-opacity="0.698039" d="M396,-164C456,-164 447.079,-226.026 504,-245 606.919,-279.306 734.141,-258.041 811.352,-238.673"/>
<polygon fill="#077091" fill-opacity="0.698039" stroke="#077091" stroke-width="2" stroke-opacity="0.698039" points="812.627,-241.959 821.442,-236.081 810.886,-235.179 812.627,-241.959"/>
</g>
<!-- n_github_com_valyala_fasthttp&#45;&gt;n_github_com_klauspost_compress_gzip -->
<g id="edge13" class="edge"><title>n_github_com_valyala_fasthttp:e&#45;&gt;n_github_com_klauspost_compress_gzip</title>
<path fill="none" stroke="#869107" stroke-width="2" stroke-opacity="0.698039" d="M396,-164C409.056,-164 472.277,-181.868 523.63,-197.048"/>
<polygon fill="#869107" fill-opacity="0.698039" stroke="#869107" stroke-width="2" stroke-opacity="0.698039" points="522.812,-200.456 533.394,-199.944 524.802,-193.745 522.812,-200.456"/>
</g>
<!-- n_github_com_valyala_fasthttp&#45;&gt;n_github_com_klauspost_compress_zlib -->
<g id="edge11" class="edge"><title>n_github_com_valyala_fasthttp:e&#45;&gt;n_github_com_klauspost_compress_zlib</title>
<path fill="none" stroke="#220791" stroke-width="2" stroke-opacity="0.698039" d="M396,-164C427.787,-164 462.46,-164 493.732,-164"/>
<polygon fill="#220791" fill-opacity="0.698039" stroke="#220791" stroke-width="2" stroke-opacity="0.698039" points="493.759,-167.5 503.758,-164 493.758,-160.5 493.759,-167.5"/>
</g>
<!-- n_github_com_valyala_fasthttp&#45;&gt;n_github_com_valyala_bytebufferpool -->
<g id="edge9" class="edge"><title>n_github_com_valyala_fasthttp:e&#45;&gt;n_github_com_valyala_bytebufferpool</title>
<path fill="none" stroke="#079150" stroke-width="2" stroke-opacity="0.698039" d="M396,-164C445.477,-164 455.641,-147.459 504,-137 597.827,-116.707 705.636,-97.3721 781.868,-84.3605"/>
<polygon fill="#079150" fill-opacity="0.698039" stroke="#079150" stroke-width="2" stroke-opacity="0.698039" points="782.669,-87.7745 791.94,-82.6467 781.495,-80.8737 782.669,-87.7745"/>
</g>
<!-- n_github_com_valyala_fasthttp_fasthttputil -->
<g id="node11" class="node"><title>n_github_com_valyala_fasthttp_fasthttputil</title>
<g id="a_node11"><a xlink:href="http://pkg.go.dev/github.com/valyala/fasthttp/fasthttputil" xlink:title="github.com/valyala/fasthttp/fasthttputil\l412 / 8.7KB\l" target="_graphviz">
<polygon fill="none" stroke="#160791" stroke-width="2" stroke-opacity="0.698039" points="684,-90 504,-90 504,-54 684,-54 684,-90"/>
<text text-anchor="start" x="512" y="-75" font-family="Times New Roman,serif" font-size="10.00">github.com/valyala/fasthttp/fasthttputil</text>
<text text-anchor="start" x="512" y="-64" font-family="Times New Roman,serif" font-size="10.00">412 / 8.7KB</text>
</a>
</g>
</g>
<!-- n_github_com_valyala_fasthttp&#45;&gt;n_github_com_valyala_fasthttp_fasthttputil -->
<g id="edge12" class="edge"><title>n_github_com_valyala_fasthttp:e&#45;&gt;n_github_com_valyala_fasthttp_fasthttputil</title>
<path fill="none" stroke="#160791" stroke-width="2" stroke-opacity="0.698039" d="M396,-164C450.91,-164 454,-126.697 504,-104 511.93,-100.4 520.395,-96.9184 528.832,-93.6603"/>
<polygon fill="#160791" fill-opacity="0.698039" stroke="#160791" stroke-width="2" stroke-opacity="0.698039" points="530.195,-96.8869 538.316,-90.0824 527.724,-90.3375 530.195,-96.8869"/>
</g>
<!-- n_github_com_valyala_fasthttp_stackless -->
<g id="node12" class="node"><title>n_github_com_valyala_fasthttp_stackless</title>
<g id="a_node12"><a xlink:href="http://pkg.go.dev/github.com/valyala/fasthttp/stackless" xlink:title="github.com/valyala/fasthttp/stackless\l220 / 4.3KB\l" target="_graphviz">
<polygon fill="none" stroke="#076491" stroke-width="2" stroke-opacity="0.698039" points="684,-36 504,-36 504,-0 684,-0 684,-36"/>
<text text-anchor="start" x="512" y="-21" font-family="Times New Roman,serif" font-size="10.00">github.com/valyala/fasthttp/stackless</text>
<text text-anchor="start" x="512" y="-10" font-family="Times New Roman,serif" font-size="10.00">220 / 4.3KB</text>
</a>
</g>
</g>
<!-- n_github_com_valyala_fasthttp&#45;&gt;n_github_com_valyala_fasthttp_stackless -->
<g id="edge14" class="edge"><title>n_github_com_valyala_fasthttp:e&#45;&gt;n_github_com_valyala_fasthttp_stackless</title>
<path fill="none" stroke="#076491" stroke-width="2" stroke-opacity="0.698039" d="M396,-164C467.423,-164 443.646,-83.1916 504,-45 506.578,-43.369 509.259,-41.8316 512.016,-40.383"/>
<polygon fill="#076491" fill-opacity="0.698039" stroke="#076491" stroke-width="2" stroke-opacity="0.698039" points="513.537,-43.5352 521.038,-36.0526 510.508,-37.2245 513.537,-43.5352"/>
</g>
<!-- n_github_com_valyala_fasthttp_stackless&#45;&gt;n_github_com_valyala_bytebufferpool -->
<g id="edge15" class="edge"><title>n_github_com_valyala_fasthttp_stackless:e&#45;&gt;n_github_com_valyala_bytebufferpool</title>
<path fill="none" stroke="#079150" stroke-width="2" stroke-opacity="0.698039" d="M684,-18C733.444,-18 787.783,-32.9803 826.844,-46.5416"/>
<polygon fill="#079150" fill-opacity="0.698039" stroke="#079150" stroke-width="2" stroke-opacity="0.698039" points="825.839,-49.8987 836.434,-49.9489 828.183,-43.3027 825.839,-49.8987"/>
</g>
</g>
</svg>
