<svg viewBox="0 0 512 512" xmlns="http://www.w3.org/2000/svg"><g fill="#333"><path d="m158.1 199h74.47l-3.57 21.45h-48.1l-3.62 22.38h43.36l-3.64 21.46h-43.39l-7.25 43.84h-26.36z"/><path d="m233.81 226.31h26.05l-13.64 81.82h-26.05zm3.19-22.05c1.07-6.87 7.83-12.41 15.18-12.41s12.52 5.54 11.61 12.41-7.72 12.46-15.07 12.46-12.78-5.64-11.72-12.46z"/><path d="m273.34 199h26.05l-6.77 41.28h.54a29 29 0 0 1 25.67-15.07c17.1 0 30.31 13.15 25.52 42-4.58 27.85-21.63 42-39.74 42-12.36 0-18.54-6.87-20.45-14.43h-1l-2.16 13.35h-25.77zm25.73 90c9.59 0 16.41-8.58 18.54-21.79s-1.71-21.62-11.4-21.62c-9.54 0-16.51 8.25-18.65 21.62s1.98 21.79 11.51 21.79z"/><path d="m347.39 267.54c4.21-25.35 23-42.29 47.63-42.29 23.22 0 37.07 14.86 32.6 41.76l-1 6.5h-54.51l-.16 1c-1.65 10.38 3.25 16.4 13.42 16.4 6.77 0 12.63-2.87 15.61-8.36l23.76.69c-5.81 16.09-21.42 26.48-43 26.48-25.66-.04-38.74-16.02-34.35-42.18zm57.43-9.16c1.33-8.36-3.68-14.33-12.2-14.33a18.59 18.59 0 0 0 -17.74 14.33z"/><path d="m440.3 226.31h25.3l-2.5 14.92h.9c4.8-10.82 12.84-16 21.79-16a31 31 0 0 1 7.14.91l-3.93 22.65a34.24 34.24 0 0 0 -10-1.38 19.21 19.21 0 0 0 -18.91 16.3l-7.35 44.42h-26z"/></g><path d="m142 228h-85l-6.8 9.65 90.23-.05z" fill="#00acd7"/><path d="m139 248h-110l-7 9.62 115.43-.09z" fill="#00acd7"/><path d="m136 268h-47l-6.32 9.65 51.75-.04z" fill="#00acd7"/></svg>