<svg viewBox="0 0 800 300" xmlns="http://www.w3.org/2000/svg"><g fill="#333"><path d="m242.25 44.58h117.84l-5.74 33.89h-76.11l-5.73 35.4h68.61l-5.73 34h-68.61l-11.47 69.37h-41.72z"/><path d="m362 87.74h41.22l-21.54 129.47h-41.22zm5-34.89c1.7-10.85 12.41-19.64 24-19.64s19.85 8.79 18.41 19.64-12.22 19.72-23.85 19.72-20.14-8.94-18.56-19.72z"/><path d="m424.61 44.58h41.21l-10.7 65.33h.88c6.7-11.91 20.11-23.85 40.59-23.85 27.06 0 48 20.82 40.37 66.5-7.25 44.08-34.22 66.5-62.88 66.5-19.55 0-29.33-10.87-32.36-22.84h-1.61l-3.37 21h-40.74zm40.71 142.42c15.17 0 26-13.57 29.33-34.47s-2.7-34.23-18-34.23c-15.09 0-26.13 13.07-29.5 34.23-3.41 20.93 3.08 34.47 18.17 34.47z"/><path d="m541.79 153c6.65-40.12 36.32-66.92 75.35-66.92 36.75 0 58.67 23.51 51.59 66.08l-1.61 10.28h-86.22l-.26 1.52c-2.61 16.44 5.14 26 21.24 26 10.71 0 20-4.55 24.7-13.23l37.59 1.09c-9.18 25.46-33.88 41.89-68 41.89-40.65-.06-61.38-25.34-54.38-66.71zm90.86-14.5c2.11-13.23-5.82-22.67-19.3-22.67-13.32 0-25.12 9.86-28.07 22.67z"/><path d="m688.8 87.74h40l-4 23.6h1.35c7.67-17.11 20.39-25.34 34.55-25.34a49 49 0 0 1 11.3 1.4l-6.07 35.91c-3.79-1.43-10.79-2.19-15.93-2.19-14.58 0-27.23 10.37-29.92 25.79l-11.64 70.3h-41.21z"/></g><path d="m216.77 90.41h-134.51l-10.76 15.27 142.78-.08z" fill="#00acd7"/><path d="m212.02 122.06h-174.07l-11.07 15.21 182.65-.13z" fill="#00acd7"/><path d="m207.27 153.7h-74.37l-10 15.27 81.88-.06z" fill="#00acd7"/><g fill="#777"><path d="m224.76 248.63h-10.76l-1.59 9.07h12.52l-.49 2.76h-15.8l4.45-25.59h15.63l-.49 2.76h-12.33l-1.42 8.24h10.76z"/><path d="m234.55 248.37 5.17-6.93h3.9l-7.62 9.56 4.64 9.45h-3.46l-3.15-7.1-5.36 7.1h-3.88l7.85-9.77-4.5-9.25h3.48z"/><path d="m259.29 251a15 15 0 0 1 -1.56 5.22 8.79 8.79 0 0 1 -3 3.47 6.81 6.81 0 0 1 -4 1.1 6.3 6.3 0 0 1 -5.06-2.23l-1.67 9.22h-3.2l4.57-26.34h2.88l-.35 2.12a7.23 7.23 0 0 1 5.64-2.46 5.31 5.31 0 0 1 4.27 2 8.92 8.92 0 0 1 1.62 5.38 19.36 19.36 0 0 1 -.09 2.18zm-3.13-.36.09-1.47a6.71 6.71 0 0 0 -1-3.93 3.45 3.45 0 0 0 -2.82-1.43 5.64 5.64 0 0 0 -4.76 2.62l-1.6 9.11a4 4 0 0 0 3.85 2.6 5 5 0 0 0 4-1.85 10.75 10.75 0 0 0 2.24-5.61z"/><path d="m271.87 244.34-1.49-.15a5.45 5.45 0 0 0 -4.82 2.76l-2.34 13.51h-3.22l3.3-19h3.08l-.47 2.21a5.66 5.66 0 0 1 4.76-2.58 5.59 5.59 0 0 1 1.51.26z"/><path d="m278.12 260.81a6.84 6.84 0 0 1 -5.55-2.61 9 9 0 0 1 -1.69-6.53l.09-.75a12.65 12.65 0 0 1 1.67-5.17 9.77 9.77 0 0 1 3.37-3.52 7.85 7.85 0 0 1 4.29-1.14 6.09 6.09 0 0 1 4.61 1.95 8 8 0 0 1 1.82 5.1 13.52 13.52 0 0 1 -.07 2.29l-.19 1.45h-12.47a6.49 6.49 0 0 0 .85 4.4 4 4 0 0 0 3.49 1.88 6.78 6.78 0 0 0 5.21-2.53l1.83 1.55a8.46 8.46 0 0 1 -3.09 2.69 8.67 8.67 0 0 1 -4.17.94zm2-17.06a4.62 4.62 0 0 0 -3.43 1.33 9.45 9.45 0 0 0 -2.33 4.13h9.24l.07-.28a5.19 5.19 0 0 0 -.71-3.68 3.33 3.33 0 0 0 -2.82-1.5z"/><path d="m298.54 255.31c.17-1.31-.55-2.24-2.16-2.77l-3.31-1c-2.79-1-4.13-2.56-4-4.78a5.26 5.26 0 0 1 2.29-4.12 8.16 8.16 0 0 1 5.11-1.58 6.86 6.86 0 0 1 4.69 1.68 5.34 5.34 0 0 1 1.73 4.28h-3.17a3 3 0 0 0 -.89-2.32 3.59 3.59 0 0 0 -2.48-.93 4.69 4.69 0 0 0 -2.85.81 2.94 2.94 0 0 0 -1.28 2.07c-.16 1.11.52 1.91 2 2.41l1.6.44a10.32 10.32 0 0 1 4.64 2.2 4.2 4.2 0 0 1 1.26 3.36 5.28 5.28 0 0 1 -1.16 3.09 6.58 6.58 0 0 1 -2.81 2 9.19 9.19 0 0 1 -3.74.64 7.45 7.45 0 0 1 -5-1.76 5.46 5.46 0 0 1 -1.89-4.46h3.18a3.38 3.38 0 0 0 1 2.57 3.91 3.91 0 0 0 2.79 1 5.45 5.45 0 0 0 3-.73 2.82 2.82 0 0 0 1.45-2.1z"/><path d="m314.92 255.31c.17-1.31-.55-2.24-2.17-2.77l-3.3-1c-2.79-1-4.14-2.56-4-4.78a5.24 5.24 0 0 1 2.29-4.12 8.16 8.16 0 0 1 5.11-1.58 6.81 6.81 0 0 1 4.68 1.68 5.31 5.31 0 0 1 1.73 4.28h-3.16a3 3 0 0 0 -.9-2.32 3.57 3.57 0 0 0 -2.48-.93 4.69 4.69 0 0 0 -2.85.81 3 3 0 0 0 -1.28 2.07c-.15 1.11.52 1.91 2 2.41l1.6.44a10.27 10.27 0 0 1 4.64 2.2 4.18 4.18 0 0 1 1.27 3.36 5.35 5.35 0 0 1 -1.16 3.09 6.58 6.58 0 0 1 -2.81 2 9.23 9.23 0 0 1 -3.75.64 7.42 7.42 0 0 1 -5-1.76 5.47 5.47 0 0 1 -1.9-4.46h3.18a3.38 3.38 0 0 0 1 2.57 3.92 3.92 0 0 0 2.8 1 5.4 5.4 0 0 0 3-.73 2.81 2.81 0 0 0 1.46-2.1z"/><path d="m330 260.46h-3.16l3.3-19h3.17zm2.62-26a1.79 1.79 0 0 1 1.38.54 1.85 1.85 0 0 1 .53 1.37 1.91 1.91 0 0 1 -.53 1.35 1.94 1.94 0 0 1 -1.35.56 1.72 1.72 0 0 1 -1.35-.47 1.74 1.74 0 0 1 -.51-1.34 2 2 0 0 1 .53-1.37 1.85 1.85 0 0 1 1.28-.6z"/><path d="m339.7 241.43-.46 2.4a7.51 7.51 0 0 1 5.84-2.74 4.72 4.72 0 0 1 4 1.87 7.26 7.26 0 0 1 .95 5l-2.08 12.46h-3.18l2.09-12.5a6.63 6.63 0 0 0 0-1.6 2.63 2.63 0 0 0 -2.9-2.51c-1.91 0-3.58 1-5 3.06l-2.35 13.55h-3.18l3.3-19z"/><path d="m362.8 255.31c.18-1.31-.54-2.24-2.16-2.77l-3.3-1c-2.79-1-4.14-2.56-4-4.78a5.27 5.27 0 0 1 2.3-4.12 8.16 8.16 0 0 1 5.11-1.58 6.81 6.81 0 0 1 4.68 1.68 5.31 5.31 0 0 1 1.73 4.28l-3.16-.02a3 3 0 0 0 -.9-2.32 3.57 3.57 0 0 0 -2.48-.93 4.69 4.69 0 0 0 -2.85.81 3 3 0 0 0 -1.28 2.07c-.15 1.11.52 1.91 2 2.41l1.6.44a10.27 10.27 0 0 1 4.64 2.2 4.18 4.18 0 0 1 1.27 3.36 5.35 5.35 0 0 1 -1.16 3.09 6.58 6.58 0 0 1 -2.81 2 9.23 9.23 0 0 1 -3.75.64 7.42 7.42 0 0 1 -5-1.76 5.47 5.47 0 0 1 -1.9-4.46h3.18a3.38 3.38 0 0 0 1 2.57 3.92 3.92 0 0 0 2.8 1 5.4 5.4 0 0 0 3-.73 2.77 2.77 0 0 0 1.44-2.08z"/><path d="m384.63 251a15.22 15.22 0 0 1 -1.56 5.22 8.86 8.86 0 0 1 -3 3.47 6.83 6.83 0 0 1 -4 1.1 6.33 6.33 0 0 1 -5.07-2.19l-1.7 9.18h-3.18l4.57-26.34h2.88l-.35 2.12a7.23 7.23 0 0 1 5.64-2.46 5.31 5.31 0 0 1 4.27 2 8.92 8.92 0 0 1 1.62 5.38 19.36 19.36 0 0 1 -.09 2.18zm-3.13-.36.09-1.47a6.71 6.71 0 0 0 -1-3.93 3.45 3.45 0 0 0 -2.82-1.43 5.63 5.63 0 0 0 -4.76 2.62l-1.6 9.11a4 4 0 0 0 3.85 2.6 5 5 0 0 0 4-1.85 10.75 10.75 0 0 0 2.24-5.61z"/><path d="m388.82 260.46h-3.16l3.3-19h3.17zm2.62-26a1.79 1.79 0 0 1 1.35.48 1.81 1.81 0 0 1 .53 1.37 1.91 1.91 0 0 1 -.53 1.35 1.94 1.94 0 0 1 -1.35.56 1.72 1.72 0 0 1 -1.35-.47 1.74 1.74 0 0 1 -.51-1.34 2 2 0 0 1 .53-1.37 1.85 1.85 0 0 1 1.33-.54z"/><path d="m404.06 244.34-1.5-.15a5.43 5.43 0 0 0 -4.81 2.76l-2.34 13.51h-3.18l3.3-19h3.08l-.48 2.21a5.42 5.42 0 0 1 6.28-2.32z"/><path d="m410.31 260.81a6.87 6.87 0 0 1 -5.56-2.61 9.06 9.06 0 0 1 -1.68-6.53l.08-.75a12.67 12.67 0 0 1 1.68-5.17 9.77 9.77 0 0 1 3.37-3.52 7.81 7.81 0 0 1 4.29-1.14 6 6 0 0 1 4.6 1.95 8 8 0 0 1 1.83 5.1 14.65 14.65 0 0 1 -.07 2.29l-.19 1.45h-12.43a6.44 6.44 0 0 0 .85 4.4 4 4 0 0 0 3.49 1.88 6.78 6.78 0 0 0 5.21-2.53l1.82 1.55a8.35 8.35 0 0 1 -3.08 2.69 8.67 8.67 0 0 1 -4.21.94zm2-17.06a4.66 4.66 0 0 0 -3.44 1.33 9.65 9.65 0 0 0 -2.33 4.13h9.25l.07-.28a5.19 5.19 0 0 0 -.71-3.68 3.33 3.33 0 0 0 -2.82-1.5z"/><path d="m419.86 250.92a14.93 14.93 0 0 1 1.6-5.24 9.09 9.09 0 0 1 3.08-3.5 7.1 7.1 0 0 1 4-1.11 6 6 0 0 1 4.89 2.32l1.83-9.93h3.18l-4.67 27h-2.91l.34-2a7 7 0 0 1 -5.56 2.39 5.25 5.25 0 0 1 -4.2-2.06 9 9 0 0 1 -1.68-5.35 16.84 16.84 0 0 1 .1-2.52zm3.06 1.82a6.62 6.62 0 0 0 .9 3.89 3.21 3.21 0 0 0 2.78 1.42c1.84.09 3.47-.84 4.9-2.77l1.5-8.78a4 4 0 0 0 -3.83-2.67 4.84 4.84 0 0 0 -3.31 1.14 7.21 7.21 0 0 0 -2.18 3.31 13.66 13.66 0 0 0 -.76 4.46z"/><path d="m463.65 257.09a8.11 8.11 0 0 1 -3.73 2.78 14.5 14.5 0 0 1 -5.6.94 8.67 8.67 0 0 1 -4.39-1.17 7.8 7.8 0 0 1 -3-3.23 12.08 12.08 0 0 1 -1.23-4.77 25.36 25.36 0 0 1 .52-5.66 17.76 17.76 0 0 1 2.24-6.17 11.17 11.17 0 0 1 4-4 10.4 10.4 0 0 1 5.49-1.32 8 8 0 0 1 5.69 2.12 8.65 8.65 0 0 1 2.42 5.75h-3.27a5.89 5.89 0 0 0 -1.46-3.74 4.84 4.84 0 0 0 -3.5-1.37 6.77 6.77 0 0 0 -5.53 2.37 13.79 13.79 0 0 0 -2.92 7.31l-.34 2.47-.05 1.33a8.78 8.78 0 0 0 1.42 5.37 4.79 4.79 0 0 0 4 1.92 8.3 8.3 0 0 0 5.89-1.82l1.06-5.75h-5.77l.49-2.76h9z"/><path d="m476.76 241.09a7 7 0 0 1 4.1 1.3 7.51 7.51 0 0 1 2.52 3.49 10.81 10.81 0 0 1 .55 4.86v.39a13.11 13.11 0 0 1 -1.65 5 9.78 9.78 0 0 1 -3.42 3.49 8.27 8.27 0 0 1 -4.58 1.17 6.81 6.81 0 0 1 -4.09-1.3 7.17 7.17 0 0 1 -2.5-3.44 11.08 11.08 0 0 1 -.57-4.8 13 13 0 0 1 1.6-5.31 9.93 9.93 0 0 1 3.44-3.65 8.19 8.19 0 0 1 4.6-1.2zm-6.47 10.2a11 11 0 0 0 0 2.3 5.65 5.65 0 0 0 1.24 3.3 3.75 3.75 0 0 0 2.84 1.29 5.17 5.17 0 0 0 2.92-.78 6.59 6.59 0 0 0 2.25-2.53 10.65 10.65 0 0 0 1.18-3.74 17.16 17.16 0 0 0 0-2.73 5.88 5.88 0 0 0 -1.28-3.35 3.8 3.8 0 0 0 -2.85-1.3 5.19 5.19 0 0 0 -4.19 1.93 9.6 9.6 0 0 0 -2.12 5.2z"/><path d="m508.58 256 6.06-14.52h3.29l-8.66 19h-2.59l-2-14.38-6.85 14.38h-2.59l-2-19h3l1.16 14.17 6.75-14.17h2.56z"/><path d="m524.36 260.81a6.87 6.87 0 0 1 -5.56-2.61 9.06 9.06 0 0 1 -1.68-6.53l.08-.75a12.67 12.67 0 0 1 1.68-5.17 9.69 9.69 0 0 1 3.37-3.52 7.81 7.81 0 0 1 4.29-1.14 6 6 0 0 1 4.6 1.95 8 8 0 0 1 1.83 5.1 14.65 14.65 0 0 1 -.07 2.29l-.19 1.45h-12.43a6.44 6.44 0 0 0 .85 4.4 4 4 0 0 0 3.49 1.88 6.78 6.78 0 0 0 5.21-2.53l1.82 1.55a8.35 8.35 0 0 1 -3.08 2.69 8.67 8.67 0 0 1 -4.21.94zm2-17.06a4.66 4.66 0 0 0 -3.44 1.33 9.55 9.55 0 0 0 -2.33 4.13h9.25l.07-.28a5.19 5.19 0 0 0 -.71-3.68 3.33 3.33 0 0 0 -2.82-1.5z"/><path d="m550.26 251a14.77 14.77 0 0 1 -1.6 5.26 9 9 0 0 1 -3 3.46 6.85 6.85 0 0 1 -3.94 1.07 5.85 5.85 0 0 1 -5.11-2.58l-.65 2.21h-2.96l4.69-27h3.19l-1.88 10.13a7 7 0 0 1 5.55-2.46 5.33 5.33 0 0 1 4.28 2 9 9 0 0 1 1.61 5.38 17.23 17.23 0 0 1 -.1 2.18zm-3-1.83a6.83 6.83 0 0 0 -.86-3.93 3.32 3.32 0 0 0 -2.8-1.43c-2 0-3.65 1-5 3l-1.42 8.27a4 4 0 0 0 4 3 4.62 4.62 0 0 0 3.26-1.1 7.29 7.29 0 0 0 2.11-3.3 14.65 14.65 0 0 0 .69-4.47z"/><path d="m559.55 260.46 2.88-16.5h-2.94l.44-2.52h2.92l.32-2.25a7.44 7.44 0 0 1 2.21-4.48 6.62 6.62 0 0 1 4.71-1.65 11 11 0 0 1 2.27.3l-.36 2.64a9.75 9.75 0 0 0 -1.7-.21 3.63 3.63 0 0 0 -2.68 1 4.72 4.72 0 0 0 -1.28 2.73l-.28 1.87h3.94l-.44 2.52h-3.94l-2.86 16.5z"/><path d="m580.33 244.34-1.49-.15a5.46 5.46 0 0 0 -4.84 2.81l-2.33 13.51h-3.17l3.31-19h3.07l-.47 2.21a5.42 5.42 0 0 1 6.28-2.32z"/><path d="m589.63 260.46a3.87 3.87 0 0 1 -.13-1l.06-1a7.78 7.78 0 0 1 -5.56 2.35 5.68 5.68 0 0 1 -4.09-1.59 4.84 4.84 0 0 1 -1.43-3.89 5.85 5.85 0 0 1 2.65-4.72 11.25 11.25 0 0 1 6.49-1.7h3.32l.22-1.51a3.53 3.53 0 0 0 -.66-2.7 3.23 3.23 0 0 0 -2.51-1 5 5 0 0 0 -2.89.8 3.43 3.43 0 0 0 -1.54 2.21h-3.2a5.17 5.17 0 0 1 1.3-3 7.6 7.6 0 0 1 2.94-2 9.61 9.61 0 0 1 3.71-.68 6.29 6.29 0 0 1 4.62 1.81 5.56 5.56 0 0 1 1.39 4.59l-1.55 9.42-.09 1.36a6.52 6.52 0 0 0 .22 1.91v.3zm-5-2.46a5.52 5.52 0 0 0 2.9-.73 7.24 7.24 0 0 0 2.34-2.12l.69-3.92h-2.41a9.08 9.08 0 0 0 -4.61.95 3.51 3.51 0 0 0 -1.81 2.69 2.74 2.74 0 0 0 .63 2.22 3 3 0 0 0 2.27.91z"/><path d="m601.64 241.43-.4 2.12a7.44 7.44 0 0 1 5.78-2.46 5.91 5.91 0 0 1 3.07.83 4.06 4.06 0 0 1 1.73 2.23 7.84 7.84 0 0 1 6.31-3.06 5 5 0 0 1 4.2 1.92 6.81 6.81 0 0 1 1 5l-2.09 12.5h-3.16l2.07-12.53a6.65 6.65 0 0 0 0-1.67c-.22-1.59-1.26-2.41-3.13-2.44a4.72 4.72 0 0 0 -3.15 1.08 5 5 0 0 0 -1.82 2.92l-2.16 12.64h-3.2l2.11-12.51a4.06 4.06 0 0 0 -.59-3 3.13 3.13 0 0 0 -2.54-1.09 5.21 5.21 0 0 0 -4.73 2.71l-2.41 13.9h-3.18l3.3-19z"/><path d="m632.57 260.81a6.85 6.85 0 0 1 -5.57-2.61 9 9 0 0 1 -1.69-6.53l.09-.75a12.67 12.67 0 0 1 1.68-5.17 9.75 9.75 0 0 1 3.36-3.52 7.85 7.85 0 0 1 4.29-1.14 6.07 6.07 0 0 1 4.61 1.95 8.1 8.1 0 0 1 1.83 5.1 16 16 0 0 1 -.07 2.29l-.2 1.45h-12.4a6.38 6.38 0 0 0 .85 4.4 4 4 0 0 0 3.49 1.88 6.76 6.76 0 0 0 5.2-2.53l1.83 1.55a8.46 8.46 0 0 1 -3.09 2.69 8.67 8.67 0 0 1 -4.21.94zm2-17.06a4.64 4.64 0 0 0 -3.43 1.33 9.45 9.45 0 0 0 -2.33 4.13h9.25l.07-.28a5.19 5.19 0 0 0 -.72-3.68 3.32 3.32 0 0 0 -2.82-1.5z"/><path d="m658.28 256 6.07-14.52h3.28l-8.66 19h-2.59l-2-14.38-6.86 14.38h-2.52l-2.06-19h3l1.16 14.17 6.75-14.17h2.57z"/><path d="m676.4 241.09a7 7 0 0 1 4.1 1.3 7.51 7.51 0 0 1 2.52 3.49 10.81 10.81 0 0 1 .55 4.86v.39a13 13 0 0 1 -1.66 5 9.76 9.76 0 0 1 -3.41 3.49 8.27 8.27 0 0 1 -4.58 1.17 6.79 6.79 0 0 1 -4.09-1.3 7.25 7.25 0 0 1 -2.51-3.44 11.24 11.24 0 0 1 -.56-4.8 13 13 0 0 1 1.6-5.31 9.93 9.93 0 0 1 3.44-3.65 8.19 8.19 0 0 1 4.6-1.2zm-6.47 10.2a11 11 0 0 0 0 2.3 5.65 5.65 0 0 0 1.24 3.3 3.75 3.75 0 0 0 2.84 1.29 5.17 5.17 0 0 0 2.92-.78 6.59 6.59 0 0 0 2.25-2.53 10.44 10.44 0 0 0 1.17-3.74 16.18 16.18 0 0 0 .06-2.73 5.82 5.82 0 0 0 -1.29-3.35 3.76 3.76 0 0 0 -2.84-1.3 5.19 5.19 0 0 0 -4.19 1.93 9.53 9.53 0 0 0 -2.12 5.2z"/><path d="m696 244.34-1.5-.15a5.43 5.43 0 0 0 -4.81 2.76l-2.34 13.51h-3.18l3.3-19h3.08l-.48 2.21a5.42 5.42 0 0 1 6.28-2.32z"/><path d="m701.13 251.69-2.49 2.23-1.13 6.54h-3.18l4.7-27h3.18l-2.82 16.14 2-2 6.75-6.19h4.13l-8.74 8.11 6 10.91h-3.53z"/></g></svg>