<svg viewBox="0 0 1280 640" xmlns="http://www.w3.org/2000/svg"><path d="m448.25 214.08h117.84l-5.74 33.92h-76.11l-5.73 35.4h68.61l-5.73 34h-68.61l-11.47 69.37h-41.72z" fill="#333"/><path d="m568 257.24h41.22l-21.54 129.47h-41.22zm5-34.89c1.68-10.88 12.39-19.64 24-19.64s19.81 8.76 18.37 19.64-12.22 19.72-23.85 19.72-20.1-8.94-18.52-19.72z" fill="#333"/><path d="m630.61 214.08h41.21l-10.7 65.33h.88c6.74-11.89 20.15-23.85 40.63-23.85 27.06 0 48 20.82 40.37 66.5-7.25 44.08-34.22 66.5-62.88 66.5-19.55 0-29.33-10.87-32.36-22.84h-1.61l-3.37 21h-40.78zm40.71 142.37c15.17 0 26-13.57 29.33-34.47s-2.7-34.23-18-34.23c-15.09 0-26.13 13.07-29.5 34.23-3.41 21.02 3.08 34.47 18.17 34.47z" fill="#333"/><path d="m747.79 322.48c6.65-40.12 36.32-66.92 75.35-66.92 36.75 0 58.67 23.51 51.59 66.08l-1.61 10.28h-86.22l-.26 1.52c-2.61 16.44 5.14 26 21.24 26 10.71 0 20-4.55 24.7-13.23l37.59 1.09c-9.18 25.46-33.88 41.89-68 41.89-40.65-.04-61.38-25.32-54.38-66.71zm90.86-14.48c2.11-13.23-5.82-22.67-19.3-22.67-13.32 0-25.12 9.86-28.07 22.67z" fill="#333"/><path d="m894.8 257.24h40l-4 23.6h1.35c7.59-17.11 20.31-25.37 34.47-25.37a49 49 0 0 1 11.38 1.43l-6.07 35.91c-3.79-1.43-10.79-2.19-15.93-2.19-14.58 0-27.23 10.37-29.92 25.79l-11.64 70.3h-41.21z" fill="#333"/><path d="m422.77 259.91h-134.51l-10.76 15.27 142.78-.08z" fill="#00acd7"/><path d="m418.02 291.56h-174.07l-11.07 15.21 182.65-.13z" fill="#00acd7"/><path d="m413.27 323.2h-74.37l-10 15.27 81.88-.07z" fill="#00acd7"/><g fill="#777"><path d="m432.75 420h-12.75l-1.86 10.71h14.86l-.58 3.26h-18.71l5.29-30.23h18.46l-.59 3.26h-14.58l-1.68 9.74h12.7z"/><path d="m444.31 419.69 6.11-8.18h4.58l-9 11.29 5.5 11.2h-4.09l-3.72-8.39-6.33 8.39h-4.59l9.28-11.54-5.32-10.92h4.11z"/><path d="m473.54 422.84a17.57 17.57 0 0 1 -1.85 6.17 10.32 10.32 0 0 1 -3.55 4.1 8.1 8.1 0 0 1 -4.69 1.3 7.44 7.44 0 0 1 -6-2.64l-2 10.84h-3.75l5.4-31.1h3.4l-.41 2.51a8.5 8.5 0 0 1 6.66-2.91 6.29 6.29 0 0 1 5.05 2.39 10.54 10.54 0 0 1 1.91 6.35 21.71 21.71 0 0 1 -.11 2.58zm-3.69-.42.1-1.74a7.89 7.89 0 0 0 -1.15-4.68 4.08 4.08 0 0 0 -3.34-1.69 6.69 6.69 0 0 0 -5.62 3.09l-1.84 10.81a4.71 4.71 0 0 0 4.55 3.07 5.92 5.92 0 0 0 4.76-2.19 12.75 12.75 0 0 0 2.54-6.67z"/><path d="m488.4 414.93-1.76-.18a6.41 6.41 0 0 0 -5.64 3.25l-2.76 16h-3.76l3.9-22.46h3.64l-.56 2.61a6.69 6.69 0 0 1 5.62-3.05 6.83 6.83 0 0 1 1.79.31z"/><path d="m495.79 434.39a8.15 8.15 0 0 1 -6.57-3.09 10.7 10.7 0 0 1 -2-7.71l.1-.89a15 15 0 0 1 2-6.11 11.54 11.54 0 0 1 4-4.16 9.36 9.36 0 0 1 5.07-1.34 7.13 7.13 0 0 1 5.44 2.31 9.4 9.4 0 0 1 2.16 6 17.41 17.41 0 0 1 -.08 2.7l-.23 1.72h-14.68a7.57 7.57 0 0 0 1 5.19 4.74 4.74 0 0 0 4.12 2.22 8 8 0 0 0 6.15-3l2.16 1.83a10 10 0 0 1 -3.65 3.19 10.29 10.29 0 0 1 -4.99 1.14zm2.38-20.16a5.43 5.43 0 0 0 -4.05 1.57 11.24 11.24 0 0 0 -2.76 4.88h10.93l.08-.34a6.17 6.17 0 0 0 -.84-4.35 4 4 0 0 0 -3.36-1.76z"/><path d="m519.91 427.89q.32-2.33-2.55-3.28l-3.91-1.14c-3.29-1.14-4.89-3-4.78-5.65a6.24 6.24 0 0 1 2.71-4.87 9.64 9.64 0 0 1 6-1.86 8.07 8.07 0 0 1 5.53 2 6.31 6.31 0 0 1 2 5.06h-3.74a3.5 3.5 0 0 0 -1.06-2.74 4.18 4.18 0 0 0 -2.93-1.1 5.47 5.47 0 0 0 -3.36 1 3.53 3.53 0 0 0 -1.52 2.45c-.18 1.3.62 2.25 2.39 2.85l1.89.52a12.15 12.15 0 0 1 5.48 2.59 5 5 0 0 1 1.5 4 6.31 6.31 0 0 1 -1.37 3.65 7.84 7.84 0 0 1 -3.33 2.38 11 11 0 0 1 -4.42.76 8.75 8.75 0 0 1 -5.9-2.09 6.43 6.43 0 0 1 -2.24-5.26h3.76a4 4 0 0 0 1.2 3 4.64 4.64 0 0 0 3.31 1.14 6.48 6.48 0 0 0 3.55-.86 3.33 3.33 0 0 0 1.79-2.55z"/><path d="m539.25 427.89q.32-2.33-2.55-3.28l-3.9-1.14q-4.95-1.71-4.78-5.65a6.24 6.24 0 0 1 2.71-4.87 9.62 9.62 0 0 1 6-1.86 8.09 8.09 0 0 1 5.54 2 6.27 6.27 0 0 1 2 5.06h-3.73a3.54 3.54 0 0 0 -1.06-2.74 4.2 4.2 0 0 0 -2.93-1.1 5.52 5.52 0 0 0 -3.37 1 3.52 3.52 0 0 0 -1.51 2.45c-.18 1.3.61 2.25 2.39 2.85l1.94.39a12.2 12.2 0 0 1 5.48 2.59 4.94 4.94 0 0 1 1.49 4 6.24 6.24 0 0 1 -1.37 3.65 7.87 7.87 0 0 1 -3.32 2.38 11.07 11.07 0 0 1 -4.42.76 8.75 8.75 0 0 1 -5.9-2.09 6.43 6.43 0 0 1 -2.24-5.26h3.76a4 4 0 0 0 1.2 3 4.6 4.6 0 0 0 3.3 1.14 6.46 6.46 0 0 0 3.55-.86 3.28 3.28 0 0 0 1.72-2.42z"/><path d="m557.06 434h-3.74l3.9-22.46h3.78zm3.09-30.67a2.11 2.11 0 0 1 1.59.57 2.15 2.15 0 0 1 .63 1.61 2.23 2.23 0 0 1 -.63 1.6 2.28 2.28 0 0 1 -1.59.67 2.08 2.08 0 0 1 -1.6-.56 2 2 0 0 1 -.6-1.58 2.35 2.35 0 0 1 .62-1.62 2.21 2.21 0 0 1 1.58-.72z"/><path d="m568.53 411.49-.54 2.84a8.89 8.89 0 0 1 6.9-3.24 5.59 5.59 0 0 1 4.69 2.2q1.51 2.11 1.12 6l-2.45 14.71h-3.76l2.51-14.79a7.51 7.51 0 0 0 0-1.89q-.35-2.91-3.42-3-3.39-.06-5.94 3.61l-2.79 16h-3.75l3.9-22.46z"/><path d="m595.83 427.89q.31-2.33-2.55-3.28l-3.91-1.14q-4.93-1.71-4.77-5.65a6.21 6.21 0 0 1 2.71-4.87 9.62 9.62 0 0 1 6-1.86 8.07 8.07 0 0 1 5.53 2 6.31 6.31 0 0 1 2 5.06h-3.74a3.5 3.5 0 0 0 -1.06-2.74 4.18 4.18 0 0 0 -2.93-1.1 5.47 5.47 0 0 0 -3.36 1 3.53 3.53 0 0 0 -1.52 2.45c-.18 1.3.62 2.25 2.39 2.85l1.89.52a12.15 12.15 0 0 1 5.48 2.59 5 5 0 0 1 1.5 4 6.24 6.24 0 0 1 -1.37 3.65 7.87 7.87 0 0 1 -3.32 2.38 11.12 11.12 0 0 1 -4.43.76 8.75 8.75 0 0 1 -5.9-2.09 6.46 6.46 0 0 1 -2.24-5.26h3.76a4 4 0 0 0 1.2 3 4.64 4.64 0 0 0 3.31 1.14 6.48 6.48 0 0 0 3.55-.86 3.33 3.33 0 0 0 1.78-2.55z"/><path d="m621.61 422.84a17.78 17.78 0 0 1 -1.84 6.17 10.42 10.42 0 0 1 -3.56 4.1 8.1 8.1 0 0 1 -4.69 1.3 7.44 7.44 0 0 1 -6-2.64l-2 10.84h-3.76l5.4-31.1h3.4l-.41 2.51a8.5 8.5 0 0 1 6.66-2.91 6.27 6.27 0 0 1 5 2.39 10.54 10.54 0 0 1 1.91 6.35 24.1 24.1 0 0 1 -.1 2.58zm-3.69-.42.1-1.74a7.89 7.89 0 0 0 -1.15-4.64 4.07 4.07 0 0 0 -3.33-1.69 6.69 6.69 0 0 0 -5.63 3.09l-1.91 10.77a4.71 4.71 0 0 0 4.55 3.07 5.92 5.92 0 0 0 4.76-2.19 12.75 12.75 0 0 0 2.61-6.67z"/><path d="m626.57 434h-3.74l3.9-22.46h3.74zm3.09-30.67a2.11 2.11 0 0 1 1.59.57 2.15 2.15 0 0 1 .63 1.61 2.23 2.23 0 0 1 -.63 1.6 2.28 2.28 0 0 1 -1.59.67 2 2 0 0 1 -2.2-2.14 2.35 2.35 0 0 1 .62-1.62 2.23 2.23 0 0 1 1.58-.72z"/><path d="m644.56 414.93-1.76-.18a6.41 6.41 0 0 0 -5.69 3.26l-2.76 16h-3.76l3.9-22.46h3.64l-.56 2.61a6.69 6.69 0 0 1 5.62-3.05 6.76 6.76 0 0 1 1.79.31z"/><path d="m652 434.39a8.11 8.11 0 0 1 -6.56-3.09 10.65 10.65 0 0 1 -2-7.71l.11-.89a14.83 14.83 0 0 1 2-6.11 11.48 11.48 0 0 1 4-4.16 9.31 9.31 0 0 1 5.06-1.34 7.13 7.13 0 0 1 5.39 2.31 9.4 9.4 0 0 1 2.16 6 16.25 16.25 0 0 1 -.08 2.7l-.23 1.72h-14.72a7.57 7.57 0 0 0 1 5.19 4.74 4.74 0 0 0 4.12 2.22 8 8 0 0 0 6.15-3l2.16 1.83a10 10 0 0 1 -3.65 3.19 10.27 10.27 0 0 1 -4.91 1.14zm2.39-20.16a5.46 5.46 0 0 0 -4.06 1.57 11.13 11.13 0 0 0 -2.75 4.88h10.92l.08-.34a6.17 6.17 0 0 0 -.84-4.35 4 4 0 0 0 -3.4-1.76z"/><path d="m663.24 422.7a17.17 17.17 0 0 1 1.89-6.19 10.65 10.65 0 0 1 3.63-4.13 8.29 8.29 0 0 1 4.76-1.31 7 7 0 0 1 5.77 2.74l2.16-11.73h3.76l-5.53 31.92h-3.42l.39-2.4a8.29 8.29 0 0 1 -6.56 2.82 6.21 6.21 0 0 1 -5-2.44 10.6 10.6 0 0 1 -2-6.32 20.62 20.62 0 0 1 .15-2.96zm3.61 2.15a7.77 7.77 0 0 0 1.06 4.6 3.83 3.83 0 0 0 3.28 1.68c2.17.1 4.1-1 5.79-3.28l1.79-10.37a4.68 4.68 0 0 0 -4.53-3.15 5.67 5.67 0 0 0 -3.91 1.34 8.64 8.64 0 0 0 -2.58 3.92 16.28 16.28 0 0 0 -.9 5.26z"/><path d="m712 428.66 7.16-17.15h3.84l-10.23 22.49h-3.06l-2.32-17-8.1 17h-3l-2.43-22.46h3.59l1.37 16.73 8-16.73h3z"/><path d="m730.6 434.39a8.11 8.11 0 0 1 -6.6-3.09 10.65 10.65 0 0 1 -2-7.71l.11-.89a14.83 14.83 0 0 1 2-6.11 11.48 11.48 0 0 1 4-4.16 9.31 9.31 0 0 1 5.06-1.34 7.13 7.13 0 0 1 5.44 2.31 9.4 9.4 0 0 1 2.16 6 17.41 17.41 0 0 1 -.08 2.7l-.23 1.72h-14.68a7.57 7.57 0 0 0 1 5.19 4.74 4.74 0 0 0 4.12 2.22 8 8 0 0 0 6.15-3l2.16 1.83a10 10 0 0 1 -3.65 3.19 10.29 10.29 0 0 1 -4.96 1.14zm2.4-20.16a5.46 5.46 0 0 0 -4.06 1.57 11.24 11.24 0 0 0 -2.76 4.88h10.93l.08-.34a6.17 6.17 0 0 0 -.84-4.35 4 4 0 0 0 -3.35-1.76z"/><path d="m761.2 422.84a17.62 17.62 0 0 1 -1.89 6.21 10.51 10.51 0 0 1 -3.57 4.09 8.12 8.12 0 0 1 -4.65 1.27 6.93 6.93 0 0 1 -6.05-3.05l-.77 2.61h-3.46l5.54-31.89h3.76l-2.26 11.92a8.25 8.25 0 0 1 6.56-2.91 6.29 6.29 0 0 1 5.05 2.39 10.54 10.54 0 0 1 1.91 6.35 19.72 19.72 0 0 1 -.13 2.58zm-3.57-2.16a8 8 0 0 0 -1-4.64 3.91 3.91 0 0 0 -3.3-1.69c-2.34-.05-4.32 1.12-5.94 3.53l-1.68 9.77a4.77 4.77 0 0 0 4.67 3.5 5.42 5.42 0 0 0 3.85-1.31 8.45 8.45 0 0 0 2.5-3.88 17.41 17.41 0 0 0 .9-5.28z"/><path d="m772.17 434 3.4-19.49h-3.46l.51-3h3.45l.38-2.66a8.8 8.8 0 0 1 2.61-5.3 7.78 7.78 0 0 1 5.57-1.95 12.88 12.88 0 0 1 2.68.36l-.46 3.15a12.53 12.53 0 0 0 -2-.25 4.27 4.27 0 0 0 -3.16 1.21 5.56 5.56 0 0 0 -1.51 3.22l-.33 2.22h4.65l-.52 3h-4.65l-3.4 19.49z"/><path d="m796.73 414.93-1.77-.18a6.42 6.42 0 0 0 -5.69 3.26l-2.76 16h-3.76l3.9-22.46h3.64l-.56 2.61a6.37 6.37 0 0 1 7.41-2.74z"/><path d="m807.7 434a5.35 5.35 0 0 1 -.14-1.18l.06-1.18a9.18 9.18 0 0 1 -6.56 2.78 6.71 6.71 0 0 1 -4.83-1.88 5.68 5.68 0 0 1 -1.69-4.6 6.92 6.92 0 0 1 3.12-5.58 13.37 13.37 0 0 1 7.67-2h3.93l.25-1.78a4.09 4.09 0 0 0 -.78-3.19 3.77 3.77 0 0 0 -3-1.22 5.79 5.79 0 0 0 -3.41.95 4 4 0 0 0 -1.82 2.6h-3.78a6 6 0 0 1 1.53-3.5 9 9 0 0 1 3.47-2.37 11.22 11.22 0 0 1 4.38-.8 7.44 7.44 0 0 1 5.47 2.13 6.59 6.59 0 0 1 1.64 5.43l-1.83 11.13-.1 1.6a7.87 7.87 0 0 0 .24 2.26v.35zm-5.9-2.9a6.55 6.55 0 0 0 3.42-.86 8.69 8.69 0 0 0 2.78-2.54l.81-4.63h-2.84a10.85 10.85 0 0 0 -5.44 1.12 4.13 4.13 0 0 0 -2.14 3.18 3.2 3.2 0 0 0 .74 2.63 3.5 3.5 0 0 0 2.67 1.07z"/><path d="m821.9 411.49-.48 2.51a8.78 8.78 0 0 1 6.83-2.91 6.9 6.9 0 0 1 3.63 1 4.75 4.75 0 0 1 2 2.63 9.31 9.31 0 0 1 7.46-3.61 6 6 0 0 1 5 2.26 8.07 8.07 0 0 1 1.18 5.86l-2.47 14.77h-3.74l2.45-14.8a7.2 7.2 0 0 0 0-2q-.39-2.83-3.69-2.89a5.68 5.68 0 0 0 -3.73 1.28 5.94 5.94 0 0 0 -2.15 3.45l-2.55 14.96h-3.78l2.49-14.78a4.71 4.71 0 0 0 -.7-3.55 3.66 3.66 0 0 0 -3-1.29 6.15 6.15 0 0 0 -5.58 3.2l-2.85 16.42h-3.76l3.91-22.46z"/><path d="m858.44 434.39a8.13 8.13 0 0 1 -6.56-3.09 10.65 10.65 0 0 1 -2-7.71l.11-.89a14.83 14.83 0 0 1 2-6.11 11.48 11.48 0 0 1 4-4.16 9.31 9.31 0 0 1 5.06-1.34 7.11 7.11 0 0 1 5.44 2.31 9.4 9.4 0 0 1 2.16 6 16.25 16.25 0 0 1 -.08 2.7l-.23 1.72h-14.72a7.57 7.57 0 0 0 1 5.19 4.74 4.74 0 0 0 4.12 2.22 8 8 0 0 0 6.15-3l2.16 1.83a9.87 9.87 0 0 1 -3.65 3.19 10.27 10.27 0 0 1 -4.96 1.14zm2.39-20.16a5.46 5.46 0 0 0 -4.06 1.57 11.13 11.13 0 0 0 -2.75 4.88h10.92l.08-.34a6.17 6.17 0 0 0 -.84-4.35 4 4 0 0 0 -3.35-1.76z"/><path d="m888.81 428.66 7.19-17.15h3.89l-10.27 22.49h-3l-2.33-17-8.1 17h-3l-2.43-22.46h3.59l1.37 16.73 8-16.73h3z"/><path d="m910.21 411.09a8.1 8.1 0 0 1 4.84 1.54 8.69 8.69 0 0 1 3 4.12 12.77 12.77 0 0 1 .65 5.74v.46a15.05 15.05 0 0 1 -1.95 5.93 11.46 11.46 0 0 1 -4 4.12 9.81 9.81 0 0 1 -5.42 1.39 8.11 8.11 0 0 1 -4.83-1.54 8.45 8.45 0 0 1 -2.95-4.07 13 13 0 0 1 -.67-5.67 15.42 15.42 0 0 1 1.89-6.27 11.8 11.8 0 0 1 4.06-4.31 9.8 9.8 0 0 1 5.38-1.44zm-7.64 12a12.45 12.45 0 0 0 0 2.73 6.72 6.72 0 0 0 1.46 3.9 4.44 4.44 0 0 0 3.36 1.52 6 6 0 0 0 3.44-.93 7.71 7.71 0 0 0 2.66-3 12.38 12.38 0 0 0 1.39-4.42 19 19 0 0 0 .07-3.22 6.91 6.91 0 0 0 -1.52-4 4.46 4.46 0 0 0 -3.36-1.53 6.12 6.12 0 0 0 -5 2.28 11.35 11.35 0 0 0 -2.51 6.15z"/><path d="m933.32 414.93-1.77-.18a6.42 6.42 0 0 0 -5.69 3.26l-2.76 16h-3.76l3.91-22.46h3.63l-.56 2.61a6.37 6.37 0 0 1 7.41-2.74z"/><path d="m939.43 423.61-2.94 2.64-1.33 7.75h-3.76l5.54-31.89h3.76l-3.32 19.06 2.3-2.32 8-7.31h4.88l-10.32 9.57 7.1 12.89h-4.11z"/></g></svg>