<?xml version="1.0" encoding="UTF-8" standalone="no"?>
<!DOCTYPE svg PUBLIC "-//W3C//DTD SVG 1.1//EN"
 "http://www.w3.org/Graphics/SVG/1.1/DTD/svg11.dtd">
<!-- Generated by graphviz version 2.38.0 (20140413.2041)
 -->
<!-- Title: G Pages: 1 -->
<svg width="980pt" height="275pt"
 viewBox="0.00 0.00 980.00 275.42" xmlns="http://www.w3.org/2000/svg" xmlns:xlink="http://www.w3.org/1999/xlink">
<g id="graph0" class="graph" transform="scale(1 1) rotate(0) translate(4 271.422)">
<title>G</title>
<polygon fill="white" stroke="none" points="-4,4 -4,-271.422 976,-271.422 976,4 -4,4"/>
<!-- n_github_com_gofiber_fiber -->
<g id="node1" class="node"><title>n_github_com_gofiber_fiber</title>
<g id="a_node1"><a xlink:href="http://pkg.go.dev/github.com/gofiber/fiber" xlink:title="github.com/gofiber/fiber\l2331 / 69.8KB\l" target="_graphviz">
<polygon fill="none" stroke="#470791" stroke-width="2" stroke-opacity="0.698039" points="144,-186 0,-186 0,-150 144,-150 144,-186"/>
<text text-anchor="start" x="8" y="-171" font-family="Times New Roman,serif" font-size="10.00">github.com/gofiber/fiber</text>
<text text-anchor="start" x="8" y="-160" font-family="Times New Roman,serif" font-size="10.00">2331 / 69.8KB</text>
</a>
</g>
</g>
<!-- n_github_com_gorilla_schema -->
<g id="node2" class="node"><title>n_github_com_gorilla_schema</title>
<g id="a_node2"><a xlink:href="http://pkg.go.dev/github.com/gorilla/schema" xlink:title="github.com/gorilla/schema\l1303 / 34.7KB\l" target="_graphviz">
<polygon fill="none" stroke="#917407" stroke-width="2" stroke-opacity="0.698039" points="396,-213 252,-213 252,-177 396,-177 396,-213"/>
<text text-anchor="start" x="260" y="-198" font-family="Times New Roman,serif" font-size="10.00">github.com/gorilla/schema</text>
<text text-anchor="start" x="260" y="-187" font-family="Times New Roman,serif" font-size="10.00">1303 / 34.7KB</text>
</a>
</g>
</g>
<!-- n_github_com_gofiber_fiber&#45;&gt;n_github_com_gorilla_schema -->
<g id="edge2" class="edge"><title>n_github_com_gofiber_fiber:e&#45;&gt;n_github_com_gorilla_schema</title>
<path fill="none" stroke="#917407" stroke-width="2" stroke-opacity="0.698039" d="M144,-168C176.189,-168 211.274,-172.322 241.784,-177.507"/>
<polygon fill="#917407" fill-opacity="0.698039" stroke="#917407" stroke-width="2" stroke-opacity="0.698039" points="241.49,-181.009 251.945,-179.294 242.703,-174.115 241.49,-181.009"/>
</g>
<!-- n_github_com_valyala_fasthttp -->
<g id="node7" class="node"><title>n_github_com_valyala_fasthttp</title>
<g id="a_node7"><a xlink:href="http://pkg.go.dev/github.com/valyala/fasthttp" xlink:title="github.com/valyala/fasthttp\l15038 / 406.9KB\l" target="_graphviz">
<polygon fill="none" stroke="#770791" stroke-width="2" stroke-opacity="0.698039" points="396,-159 252,-159 252,-123 396,-123 396,-159"/>
<text text-anchor="start" x="260" y="-144" font-family="Times New Roman,serif" font-size="10.00">github.com/valyala/fasthttp</text>
<text text-anchor="start" x="260" y="-133" font-family="Times New Roman,serif" font-size="10.00">15038 / 406.9KB</text>
</a>
</g>
</g>
<!-- n_github_com_gofiber_fiber&#45;&gt;n_github_com_valyala_fasthttp -->
<g id="edge1" class="edge"><title>n_github_com_gofiber_fiber:e&#45;&gt;n_github_com_valyala_fasthttp</title>
<path fill="none" stroke="#770791" stroke-width="2" stroke-opacity="0.698039" d="M144,-168C176.189,-168 211.274,-163.678 241.784,-158.493"/>
<polygon fill="#770791" fill-opacity="0.698039" stroke="#770791" stroke-width="2" stroke-opacity="0.698039" points="242.703,-161.885 251.945,-156.706 241.49,-154.991 242.703,-161.885"/>
</g>
<!-- n_github_com_klauspost_compress_flate -->
<g id="node3" class="node"><title>n_github_com_klauspost_compress_flate</title>
<g id="a_node3"><a xlink:href="http://pkg.go.dev/github.com/klauspost/compress/flate" xlink:title="github.com/klauspost/compress/flate\l6893 / 185.2KB\l" target="_graphviz">
<polygon fill="none" stroke="#077091" stroke-width="2" stroke-opacity="0.698039" points="972,-236 792,-236 792,-200 972,-200 972,-236"/>
<text text-anchor="start" x="800" y="-221" font-family="Times New Roman,serif" font-size="10.00">github.com/klauspost/compress/flate</text>
<text text-anchor="start" x="800" y="-210" font-family="Times New Roman,serif" font-size="10.00">6893 / 185.2KB</text>
</a>
</g>
</g>
<!-- n_github_com_klauspost_compress_gzip -->
<g id="node4" class="node"><title>n_github_com_klauspost_compress_gzip</title>
<g id="a_node4"><a xlink:href="http://pkg.go.dev/github.com/klauspost/compress/gzip" xlink:title="github.com/klauspost/compress/gzip\l613 / 16.9KB\l" target="_graphviz">
<polygon fill="none" stroke="#869107" stroke-width="2" stroke-opacity="0.698039" points="684,-236 504,-236 504,-200 684,-200 684,-236"/>
<text text-anchor="start" x="512" y="-221" font-family="Times New Roman,serif" font-size="10.00">github.com/klauspost/compress/gzip</text>
<text text-anchor="start" x="512" y="-210" font-family="Times New Roman,serif" font-size="10.00">613 / 16.9KB</text>
</a>
</g>
</g>
<!-- n_github_com_klauspost_compress_gzip&#45;&gt;n_github_com_klauspost_compress_flate -->
<g id="edge3" class="edge"><title>n_github_com_klauspost_compress_gzip:e&#45;&gt;n_github_com_klauspost_compress_flate</title>
<path fill="none" stroke="#077091" stroke-width="2" stroke-opacity="0.698039" d="M684,-218C715.787,-218 750.46,-218 781.732,-218"/>
<polygon fill="#077091" fill-opacity="0.698039" stroke="#077091" stroke-width="2" stroke-opacity="0.698039" points="781.759,-221.5 791.758,-218 781.758,-214.5 781.759,-221.5"/>
</g>
<!-- n_github_com_klauspost_compress_zlib -->
<g id="node5" class="node"><title>n_github_com_klauspost_compress_zlib</title>
<g id="a_node5"><a xlink:href="http://pkg.go.dev/github.com/klauspost/compress/zlib" xlink:title="github.com/klauspost/compress/zlib\l384 / 10.6KB\l" target="_graphviz">
<polygon fill="none" stroke="#220791" stroke-width="2" stroke-opacity="0.698039" points="684,-182 504,-182 504,-146 684,-146 684,-182"/>
<text text-anchor="start" x="512" y="-167" font-family="Times New Roman,serif" font-size="10.00">github.com/klauspost/compress/zlib</text>
<text text-anchor="start" x="512" y="-156" font-family="Times New Roman,serif" font-size="10.00">384 / 10.6KB</text>
</a>
</g>
</g>
<!-- n_github_com_klauspost_compress_zlib&#45;&gt;n_github_com_klauspost_compress_flate -->
<g id="edge4" class="edge"><title>n_github_com_klauspost_compress_zlib:e&#45;&gt;n_github_com_klauspost_compress_flate</title>
<path fill="none" stroke="#077091" stroke-width="2" stroke-opacity="0.698039" d="M684,-164C735.164,-164 791.228,-181.151 830.419,-196.121"/>
<polygon fill="#077091" fill-opacity="0.698039" stroke="#077091" stroke-width="2" stroke-opacity="0.698039" points="829.418,-199.488 840.006,-199.869 831.966,-192.968 829.418,-199.488"/>
</g>
<!-- n_github_com_valyala_bytebufferpool -->
<g id="node6" class="node"><title>n_github_com_valyala_bytebufferpool</title>
<g id="a_node6"><a xlink:href="http://pkg.go.dev/github.com/valyala/bytebufferpool" xlink:title="github.com/valyala/bytebufferpool\l269 / 5.8KB\l" target="_graphviz">
<polygon fill="none" stroke="#079150" stroke-width="2" stroke-opacity="0.698039" points="972,-86 792,-86 792,-50 972,-50 972,-86"/>
<text text-anchor="start" x="800" y="-71" font-family="Times New Roman,serif" font-size="10.00">github.com/valyala/bytebufferpool</text>
<text text-anchor="start" x="800" y="-60" font-family="Times New Roman,serif" font-size="10.00">269 / 5.8KB</text>
</a>
</g>
</g>
<!-- n_github_com_valyala_fasthttp&#45;&gt;n_github_com_klauspost_compress_flate -->
<g id="edge8" class="edge"><title>n_github_com_valyala_fasthttp:e&#45;&gt;n_github_com_klauspost_compress_flate</title>
<path fill="none" stroke="#077091" stroke-width="2" stroke-opacity="0.698039" d="M396,-141C462.637,-141 442.198,-220.081 504,-245 607.819,-286.86 740.681,-260.942 817.778,-238.989"/>
<polygon fill="#077091" fill-opacity="0.698039" stroke="#077091" stroke-width="2" stroke-opacity="0.698039" points="819.197,-242.221 827.818,-236.062 817.238,-235.501 819.197,-242.221"/>
</g>
<!-- n_github_com_valyala_fasthttp&#45;&gt;n_github_com_klauspost_compress_gzip -->
<g id="edge6" class="edge"><title>n_github_com_valyala_fasthttp:e&#45;&gt;n_github_com_klauspost_compress_gzip</title>
<path fill="none" stroke="#869107" stroke-width="2" stroke-opacity="0.698039" d="M396,-141C448.894,-141 454.572,-172.166 504,-191 509.092,-192.94 514.389,-194.839 519.747,-196.672"/>
<polygon fill="#869107" fill-opacity="0.698039" stroke="#869107" stroke-width="2" stroke-opacity="0.698039" points="518.835,-200.057 529.428,-199.896 521.047,-193.415 518.835,-200.057"/>
</g>
<!-- n_github_com_valyala_fasthttp&#45;&gt;n_github_com_klauspost_compress_zlib -->
<g id="edge9" class="edge"><title>n_github_com_valyala_fasthttp:e&#45;&gt;n_github_com_klauspost_compress_zlib</title>
<path fill="none" stroke="#220791" stroke-width="2" stroke-opacity="0.698039" d="M396,-141C427.848,-141 462.398,-144.002 493.54,-147.837"/>
<polygon fill="#220791" fill-opacity="0.698039" stroke="#220791" stroke-width="2" stroke-opacity="0.698039" points="493.161,-151.317 503.523,-149.109 494.046,-144.373 493.161,-151.317"/>
</g>
<!-- n_github_com_valyala_fasthttp&#45;&gt;n_github_com_valyala_bytebufferpool -->
<g id="edge10" class="edge"><title>n_github_com_valyala_fasthttp:e&#45;&gt;n_github_com_valyala_bytebufferpool</title>
<path fill="none" stroke="#079150" stroke-width="2" stroke-opacity="0.698039" d="M396,-141C538.274,-141 701.436,-109.902 797.612,-88.3009"/>
<polygon fill="#079150" fill-opacity="0.698039" stroke="#079150" stroke-width="2" stroke-opacity="0.698039" points="798.588,-91.6685 807.567,-86.0449 797.041,-84.8416 798.588,-91.6685"/>
</g>
<!-- n_github_com_valyala_fasthttp_fasthttputil -->
<g id="node8" class="node"><title>n_github_com_valyala_fasthttp_fasthttputil</title>
<g id="a_node8"><a xlink:href="http://pkg.go.dev/github.com/valyala/fasthttp/fasthttputil" xlink:title="github.com/valyala/fasthttp/fasthttputil\l412 / 8.7KB\l" target="_graphviz">
<polygon fill="none" stroke="#160791" stroke-width="2" stroke-opacity="0.698039" points="684,-90 504,-90 504,-54 684,-54 684,-90"/>
<text text-anchor="start" x="512" y="-75" font-family="Times New Roman,serif" font-size="10.00">github.com/valyala/fasthttp/fasthttputil</text>
<text text-anchor="start" x="512" y="-64" font-family="Times New Roman,serif" font-size="10.00">412 / 8.7KB</text>
</a>
</g>
</g>
<!-- n_github_com_valyala_fasthttp&#45;&gt;n_github_com_valyala_fasthttp_fasthttputil -->
<g id="edge5" class="edge"><title>n_github_com_valyala_fasthttp:e&#45;&gt;n_github_com_valyala_fasthttp_fasthttputil</title>
<path fill="none" stroke="#160791" stroke-width="2" stroke-opacity="0.698039" d="M396,-141C399.645,-141 476.567,-113.729 533.19,-93.4767"/>
<polygon fill="#160791" fill-opacity="0.698039" stroke="#160791" stroke-width="2" stroke-opacity="0.698039" points="534.56,-96.7039 542.796,-90.0388 532.201,-90.1133 534.56,-96.7039"/>
</g>
<!-- n_github_com_valyala_fasthttp_stackless -->
<g id="node9" class="node"><title>n_github_com_valyala_fasthttp_stackless</title>
<g id="a_node9"><a xlink:href="http://pkg.go.dev/github.com/valyala/fasthttp/stackless" xlink:title="github.com/valyala/fasthttp/stackless\l220 / 4.3KB\l" target="_graphviz">
<polygon fill="none" stroke="#076491" stroke-width="2" stroke-opacity="0.698039" points="684,-36 504,-36 504,-0 684,-0 684,-36"/>
<text text-anchor="start" x="512" y="-21" font-family="Times New Roman,serif" font-size="10.00">github.com/valyala/fasthttp/stackless</text>
<text text-anchor="start" x="512" y="-10" font-family="Times New Roman,serif" font-size="10.00">220 / 4.3KB</text>
</a>
</g>
</g>
<!-- n_github_com_valyala_fasthttp&#45;&gt;n_github_com_valyala_fasthttp_stackless -->
<g id="edge7" class="edge"><title>n_github_com_valyala_fasthttp:e&#45;&gt;n_github_com_valyala_fasthttp_stackless</title>
<path fill="none" stroke="#076491" stroke-width="2" stroke-opacity="0.698039" d="M396,-141C460.222,-141 447.969,-76.3849 504,-45 507.051,-43.2911 510.222,-41.6782 513.472,-40.1571"/>
<polygon fill="#076491" fill-opacity="0.698039" stroke="#076491" stroke-width="2" stroke-opacity="0.698039" points="515.022,-43.3 522.804,-36.1105 512.237,-36.8779 515.022,-43.3"/>
</g>
<!-- n_github_com_valyala_fasthttp_stackless&#45;&gt;n_github_com_valyala_bytebufferpool -->
<g id="edge11" class="edge"><title>n_github_com_valyala_fasthttp_stackless:e&#45;&gt;n_github_com_valyala_bytebufferpool</title>
<path fill="none" stroke="#079150" stroke-width="2" stroke-opacity="0.698039" d="M684,-18C733.444,-18 787.783,-32.9803 826.844,-46.5416"/>
<polygon fill="#079150" fill-opacity="0.698039" stroke="#079150" stroke-width="2" stroke-opacity="0.698039" points="825.839,-49.8987 836.434,-49.9489 828.183,-43.3027 825.839,-49.8987"/>
</g>
</g>
</svg>
