<svg viewBox="0 0 1275.59 1275.59" xmlns="http://www.w3.org/2000/svg"><g fill="#00acd7"><path d="m207 812.5c-.37 0-.48-.24-.25-.53l12.62-16.1a1.58 1.58 0 0 1 1.09-.53l169.56-.08c.37 0 .51.25.31.56l-10.28 16a1.38 1.38 0 0 1 -1 .56z"/><path d="m137.72 854.88c-.37 0-.49-.24-.26-.53l12.63-16.11a1.54 1.54 0 0 1 1.08-.53l215.19-.15a.47.47 0 0 1 .47.64l-5.25 15.89a1 1 0 0 1 -.88.64z"/><path d="m249.4 897.19a.37.37 0 0 1 -.35-.59l8.91-16a1.28 1.28 0 0 1 1-.59l97.15-.08a.6.6 0 0 1 .61.67l-1.51 15.83a.77.77 0 0 1 -.74.67z"/><path d="m730.17 804.35c-28.95 7.15-48.85 13.11-77.33 20.27-7 1.76-7.56 2.43-13.47-4.44-6.94-8-11.86-12.7-21.63-17.5-29-14.28-57.2-10.33-83.21 6.74-31.17 20.45-47.54 50-47.15 87.78.38 36.88 26 67.4 62.28 72.46 31.16 4.34 57.52-6.85 78.47-30.27 4.37-4.89 7.91-10.53 12.63-16.88h-88.85c-9.61 0-11.86-5.89-8.57-13.85 5.82-14.06 17-38.4 23.5-50.32 1.53-2.83 4.7-7.56 11.32-7.56h167.84c-.82 12.51-.81 25.07-2.61 37.36a195.5 195.5 0 0 1 -37.81 90.55c-33.06 43.82-76.35 71-131.2 78.21-45.08 5.9-87-2.89-123.76-30.61-33.93-25.61-53.51-60.06-58.58-102.25-6.06-50.38 8.59-95.24 39-135 32.77-42.85 75.91-70 129.11-79.65 43.21-7.84 84.61-2.55 122 22.42 24.38 16.28 41.73 38.31 53.38 65.17 1.71 3.79-.17 6.09-5.36 7.37z"/><path d="m882.45 1059.37c-42.16-.79-80.24-12.91-112.3-40.56-27.18-23.46-44.09-53.26-49.77-89-8.26-52 6.12-98.13 37.55-139.27 33.72-44.13 74.34-67.31 128.91-77.08 46.92-8.4 91.27-3.56 131.21 23.72 36.52 25 59.16 58.51 64.88 102.65 8 62-10.18 112.83-53 156.35-30.59 31.06-67.85 50.46-110.58 58.9-12.14 2.38-24.61 2.92-36.9 4.29zm109.96-186.37c-.5-6-.51-10.72-1.33-15.29-8.21-45.58-50.14-71.24-94.07-61.46-43.09 9.59-70.57 36.77-80.57 80.14-8.31 36.06 9.36 72.34 42.27 87 25.29 11.28 50.82 9.55 75.21-2.81 36.23-18.35 56.08-47.92 58.49-87.58z"/></g><path d="m70.87 285.39h225.8v59.45h-153.67v81.26h138.68v59.45h-138.68v140.87h-72.13z" fill="#333"/><path d="m341.13 301.71c0-19.65 17.32-35.8 38.3-35.8 21.15 0 38.47 16.15 38.47 35.8 0 19.82-17.32 36-38.47 36-20.98-.03-38.3-16.18-38.3-36zm2.67 68.94h70.94v255.77h-70.94z" fill="#333"/><path d="m472.69 285.39h70.94v128.22h2.16c9.49-20.81 30-46.29 72.77-46.29 56.12 0 103.57 43.62 103.57 131.55 0 85.59-45.46 131.71-103.74 131.71-41.29 0-62.77-23.81-72.6-45.12h-3.16v41h-69.94zm123.22 288.74c34.81 0 53.79-31 53.79-75.6 0-44.29-18.65-74.76-53.79-74.76-34.47 0-53.78 29.14-53.78 74.76s19.65 75.6 53.78 75.6z" fill="#333"/><path d="m758.94 499.7c0-78.93 48.79-132.38 124.06-132.38 67.61 0 120.23 43 120.23 129.88v19.49h-174.18v.16c0 38.13 22.48 61.61 58 61.61 23.64 0 42-10.15 49.12-29.64l65.61 4.33c-10 47.46-52.62 78.27-115.9 78.27-78.81 0-126.94-50.62-126.94-131.72zm177.51-27c-.16-30.47-21.48-52.45-52.28-52.45-31.48 0-53.62 23.31-55.12 52.45z" fill="#333"/><path d="m1049.53 370.65h68.77v44.63h2.7c9.32-31.64 32.8-48.3 61.44-48.3a106.29 106.29 0 0 1 22.31 2.5v62.95c-6.66-2.17-20.14-3.83-30-3.83-31.31 0-54.28 21.64-54.28 53.12v144.7h-70.94z" fill="#333"/></svg>