<svg viewBox="0 0 1275.59 1275.59" xmlns="http://www.w3.org/2000/svg"><g fill="#00acd7"><path d="m267.9 791.36c-.37 0-.48-.24-.25-.53l10.72-13.69a1.57 1.57 0 0 1 1.09-.52l145.45-.07c.37 0 .51.25.31.56l-8.73 13.61a1.37 1.37 0 0 1 -1 .57z"/><path d="m208.37 827.76c-.37 0-.49-.24-.26-.53l10.73-13.69a1.54 1.54 0 0 1 1.08-.53l184.65-.13a.46.46 0 0 1 .46.64l-4.45 13.48a1 1 0 0 1 -.88.64z"/><path d="m304.29 864.09c-.37 0-.52-.26-.34-.58l7.55-13.57a1.28 1.28 0 0 1 1-.59l83.26-.07a.6.6 0 0 1 .61.67l-1.28 13.41a.78.78 0 0 1 -.74.67z"/><path d="m717.13 784.36c-24.86 6.14-42 11.26-66.41 17.4-6 1.52-6.49 2.09-11.57-3.8-6-6.92-10.19-10.91-18.58-15-24.94-12.26-49.13-8.87-71.47 5.79-26.78 17.57-40.83 43-40.5 75.4.33 31.68 22.29 57.88 53.5 62.23 26.76 3.73 49.4-5.88 67.39-26 3.76-4.2 6.8-9 10.85-14.5h-76.34c-8.26 0-10.19-5.06-7.37-11.89 5-12.08 14.65-33 20.19-43.22 1.32-2.43 4-6.5 9.73-6.5h144.21c-.71 10.75-.7 21.54-2.24 32.09a167.89 167.89 0 0 1 -32.52 77.74c-28.39 37.64-65.58 61-112.69 67.18-38.72 5.06-74.75-2.49-106.3-26.3-29.14-22-46-51.58-50.32-87.82-5.2-43.27 7.39-81.81 33.52-116 28.14-36.8 65.2-60.12 110.89-68.41 37.11-6.73 72.67-2.2 104.8 19.26 20.94 14 35.84 32.9 45.85 56 1.46 3.28-.16 5.25-4.62 6.35z"/><path d="m847.93 1003.4c-36.21-.68-68.92-11.09-96.45-34.85-23.35-20.14-37.88-45.74-42.75-76.45-7.1-44.67 5.25-84.28 32.25-119.61 29-37.91 63.85-57.82 110.72-66.21 40.3-7.21 78.39-3 112.7 20.38 31.37 21.42 50.82 50.25 55.73 88.16 6.9 53.26-8.74 96.91-45.57 134.29-26.27 26.68-58.28 43.34-95 50.59-10.36 2.06-21.07 2.51-31.63 3.7zm94.45-160.08c-.43-5.15-.44-9.21-1.14-13.14-7.06-39.18-43.07-61.18-80.8-52.78-37 8.24-60.61 31.58-69.2 68.83-7.15 31 8 62.14 36.3 74.74 21.72 9.68 43.65 8.2 64.6-2.42 31.12-15.77 48.2-41.17 50.24-75.23z"/></g><path d="m150.85 338.62h194v51.06h-132v69.79h119.07v51.06h-119.14v121h-61.93z" fill="#333"/><path d="m383 352.63c0-16.87 14.87-30.75 32.9-30.75s33 13.88 33 30.75-14.87 30.9-33 30.9-32.9-13.88-32.9-30.9zm2.29 59.21h60.93v219.69h-60.94z" fill="#333"/><path d="m496 338.62h60.93v110.13h1.86c8.15-17.88 25.75-39.77 62.5-39.77 48.2 0 89 37.48 89 113 0 73.52-39 113.14-89.1 113.14-35.47 0-53.92-20.45-62.36-38.76h-2.72v35.18h-60.11zm105.84 248c29.89 0 46.2-26.6 46.2-64.93 0-38.05-16-64.22-46.2-64.22-29.6 0-46.19 25-46.19 64.22s16.85 64.93 46.17 64.93z" fill="#333"/><path d="m741.85 522.69c0-67.79 41.91-113.69 106.56-113.69 58.06 0 103.26 36.9 103.26 111.56v16.74h-149.61v.14c0 32.75 19.31 52.92 49.78 52.92 20.31 0 36-8.72 42.19-25.46l56.35 3.72c-8.58 40.76-45.19 67.22-99.54 67.22-67.65-.02-108.99-43.5-108.99-113.15zm152.47-23.17c-.15-26.17-18.45-45-44.91-45-27 0-46.06 20-47.35 45z" fill="#333"/><path d="m991.44 411.84h59.07v38.34h2.29c8-27.18 28.17-41.48 52.77-41.48a92 92 0 0 1 19.17 2.14v54.07c-5.72-1.86-17.31-3.29-25.75-3.29-26.89 0-46.62 18.59-46.62 45.62v124.29h-60.93z" fill="#333"/></svg>