<svg viewBox="0 0 1280 248.65" xmlns="http://www.w3.org/2000/svg"><g fill="#00acd7"><path d="m800.46 103.56c-.37 0-.48-.24-.26-.53l5.94-7.57a1.54 1.54 0 0 1 1.08-.53h84.56c.37 0 .51.26.31.57l-4.81 7.5a1.37 1.37 0 0 1 -1 .57z"/><path d="m765.62 124.86c-.37 0-.48-.24-.25-.53l5.93-7.57a1.58 1.58 0 0 1 1.09-.53l107.48-.07a.45.45 0 0 1 .46.63l-2.42 7.35a1 1 0 0 1 -.89.64z"/><path d="m821.75 146.12c-.37 0-.52-.26-.34-.59l4.15-7.45a1.28 1.28 0 0 1 1-.59h48.16a.6.6 0 0 1 .61.67l-.7 7.29a.75.75 0 0 1 -.73.67z"/><path d="m1063.06 99.46c-14.55 3.6-24.55 6.59-38.87 10.19-3.53.89-3.8 1.22-6.77-2.23-3.49-4-6-6.38-10.87-8.8-14.55-7.18-28.75-5.19-41.82 3.38-15.67 10.28-23.9 25.14-23.7 44.12.19 18.54 13 33.87 31.3 36.42 15.66 2.18 28.91-3.45 39.44-15.22 2.2-2.45 4-5.29 6.35-8.48h-44.65c-4.84 0-6-3-4.31-7 2.92-7.07 8.57-19.3 11.81-25.29a6.36 6.36 0 0 1 5.69-3.8h84.34c-.41 6.29-.41 12.6-1.31 18.77a98.1 98.1 0 0 1 -19 45.51c-16.61 22-38.37 35.71-65.94 39.32-22.66 3-43.74-1.46-62.2-15.39-17.05-12.87-26.89-30.18-29.44-51.39-3-25.32 4.32-47.87 19.6-67.86 16.48-21.54 38.16-35.19 64.89-40 21.72-3.94 42.53-1.29 61.33 11.26 12.25 8.19 21 19.26 26.83 32.76.85 1.93-.09 3.09-2.7 3.73z"/><path d="m1139.6 227.64c-21.19-.4-40.34-6.49-56.45-20.39a72.67 72.67 0 0 1 -25-44.74c-4.15-26.14 3.07-49.32 18.87-70 17-22.18 37.36-33.84 64.79-38.75 23.58-4.22 45.87-1.78 66 11.93 18.36 12.53 29.73 29.4 32.61 51.59 4 31.16-5.12 56.71-26.66 78.58-15.38 15.61-34.11 25.36-55.58 29.61-6.18 1.21-12.41 1.47-18.58 2.17zm55.26-93.64c-.25-3-.25-5.39-.67-7.69-4.12-22.91-25.2-35.81-47.28-30.89-21.66 4.82-35.46 18.48-40.49 40.28-4.18 18.12 4.7 36.36 21.24 43.73 12.71 5.67 25.55 4.8 37.8-1.41 18.22-9.26 28.21-24.12 29.4-44.02z"/></g><path d="m73.15 27.51h132.51v34.89h-90.2v47.68h81.4v34.92h-81.4v82.67h-42.31z" fill="#333"/><path d="m231.75 37.09c0-11.53 10.16-21 22.48-21s22.57 9.48 22.57 21-10.16 21.11-22.57 21.11-22.48-9.48-22.48-21.11zm1.56 40.45h41.63v150.1h-41.63z" fill="#333"/><path d="m309 27.51h41.63v75.24h1.27c5.57-12.21 17.59-27.16 42.7-27.16 32.93 0 60.78 25.6 60.78 77.2 0 50.22-26.68 77.29-60.88 77.29-24.23 0-36.84-14-42.6-26.48h-1.9v24h-41zm72.26 169.49c20.42 0 31.56-18.17 31.56-44.36 0-26-10.94-43.88-31.56-43.88-20.23 0-31.56 17.11-31.56 43.88s11.53 44.36 31.56 44.36z" fill="#333"/><path d="m476.93 153.27c0-46.31 28.63-77.68 72.8-77.68 39.67 0 70.55 25.21 70.55 76.22v11.43h-102.21v.1c0 22.38 13.19 36.15 34 36.15 13.87 0 24.62-6 28.82-17.39l38.5 2.54c-5.86 27.85-30.88 45.93-68 45.93-46.22 0-74.46-29.71-74.46-77.3zm104.17-15.83c-.1-17.88-12.61-30.78-30.69-30.78-18.46 0-31.46 13.68-32.34 30.78z" fill="#333"/><path d="m647.45 77.54h40.36v26.19h1.56c5.48-18.56 19.25-28.34 36.06-28.34a62.56 62.56 0 0 1 13.1 1.47v36.94c-3.91-1.27-11.83-2.25-17.59-2.25-18.37 0-31.86 12.7-31.86 31.17v84.92h-41.63z" fill="#333"/></svg>