<svg viewBox="0 0 1168.14 354.15" xmlns="http://www.w3.org/2000/svg"><g transform="translate(-40.5 -235.16)"><path d="m767.81 322.64c-.37 0-.49-.24-.26-.53l5.93-7.57a1.58 1.58 0 0 1 1.09-.53h84.55c.37 0 .51.25.31.57l-4.8 7.49a1.39 1.39 0 0 1 -1 .57z" fill="#00acd7"/><path d="m733 343.94c-.37 0-.48-.24-.26-.53l5.94-7.57a1.54 1.54 0 0 1 1.08-.53l107.49-.08a.46.46 0 0 1 .46.64l-2.43 7.35a1 1 0 0 1 -.88.64z" fill="#00acd7"/><path d="m789.1 365.2c-.37 0-.52-.26-.34-.59l4.15-7.45a1.28 1.28 0 0 1 1-.59h48.16a.59.59 0 0 1 .6.67l-.69 7.29a.76.76 0 0 1 -.74.67z" fill="#00acd7"/><path d="m1030.4 318.54c-14.55 3.59-24.55 6.59-38.86 10.19-3.53.88-3.8 1.22-6.77-2.23-3.49-4.05-6-6.39-10.87-8.8-14.6-7.18-28.75-5.19-41.82 3.39-15.67 10.28-23.9 25.14-23.7 44.12.19 18.54 13 33.87 31.3 36.42 15.66 2.18 28.91-3.45 39.44-15.22 2.2-2.46 4-5.29 6.35-8.48h-44.66c-4.83 0-6-3-4.31-7 2.93-7.07 8.58-19.3 11.82-25.29a6.36 6.36 0 0 1 5.69-3.8h84.37c-.41 6.29-.41 12.6-1.31 18.77a98.21 98.21 0 0 1 -19 45.51c-16.61 22-38.37 35.71-65.94 39.32-22.66 3-43.74-1.46-62.2-15.39-17.06-12.87-26.9-30.19-29.45-51.39-3-25.32 4.32-47.87 19.61-67.86 16.47-21.54 38.16-35.19 64.89-40 21.72-3.94 42.53-1.28 61.33 11.27 12.25 8.18 21 19.26 26.83 32.76.86 1.91-.14 3.07-2.74 3.71z" fill="#00acd7"/><path d="m1106.94 446.72c-21.19-.4-40.33-6.49-56.44-20.39a72.73 72.73 0 0 1 -25-44.74c-4.15-26.14 3.08-49.32 18.88-70 17-22.18 37.36-33.83 64.79-38.74 23.58-4.22 45.87-1.78 65.95 11.93 18.35 12.53 29.73 29.4 32.61 51.59 4 31.16-5.12 56.71-26.67 78.58-15.37 15.61-34.1 25.36-55.58 29.6-6.09 1.21-12.36 1.45-18.54 2.17zm55.27-93.67c-.25-3-.25-5.39-.67-7.69-4.13-22.91-25.2-35.81-47.28-30.89-21.66 4.82-35.47 18.48-40.49 40.28-4.18 18.12 4.7 36.36 21.24 43.73 12.71 5.67 25.54 4.8 37.8-1.41 18.19-9.23 28.19-24.07 29.4-44.02z" fill="#00acd7"/><g fill="#777"><path d="m42.59 478.4h17.31l21.25 84.48h1l22.1-84.48h17.16l22.1 84.54h1l21.21-84.54h17.36l-30.28 109.09h-16.57l-22.95-81.71h-.86l-23 81.71h-16.57z"/><path d="m185.18 547.12c0-25.15 15-42.51 37.83-42.51 18.53 0 36.22 11.56 36.22 41.12v5.65h-58.17c.42 15.77 9.59 24.61 23.22 24.61 9.06 0 16-3.94 18.86-11.67l15.08 2.68c-3.63 13.32-16.25 22.11-34.1 22.11-24.12.04-38.94-16.58-38.94-41.99zm58.44-7.67c-.05-12.52-8.15-21.68-20.51-21.68-12.94 0-21.36 10.06-22 21.68z"/><path d="m278.24 478.4h15.93v40.54h1c2.82-5.06 8.31-14.33 23.49-14.33 19.76 0 34.36 15.61 34.36 42.13s-14.38 42.35-34.2 42.35c-14.92 0-20.78-9.11-23.65-14.33h-1.37v12.73h-15.56zm37 97.11c14.22 0 21.68-12.52 21.68-28.93 0-16.24-7.24-28.44-21.68-28.44-13.9 0-21.36 11.34-21.36 28.44s7.64 28.93 21.33 28.93z"/><path d="m411.84 478.4h67.65v14.17h-51.19v33.24h46.34v14.12h-46.34v47.56h-16.46z"/><path d="m497.44 505.67h15.39v13h.85c3-8.79 11.19-14.22 20.78-14.22a65.58 65.58 0 0 1 6.76.37v15.24a37.14 37.14 0 0 0 -8.31-1c-11.29 0-19.55 7.72-19.55 18.43v50h-15.92z"/><path d="m550.49 564.38c0-18.59 15.88-22.64 31.38-24.45 14.7-1.71 20.67-1.6 20.67-7.41v-.37c0-9.27-5.28-14.65-15.56-14.65-10.71 0-16.67 5.59-19 11.4l-15-3.41c5.32-14.92 19-20.88 33.77-20.88 13 0 31.75 4.74 31.75 28.55v54.33h-15.5v-11.18h-.64c-3 6.12-10.65 13-24.18 13-15.6 0-27.69-8.85-27.69-24.93zm52.1-6.4v-10.54c-2.29 2.29-14.54 3.67-19.71 4.36-9.22 1.23-16.78 4.27-16.78 12.79 0 7.88 6.5 11.93 15.5 11.93 13.26 0 20.99-8.84 20.99-18.52z"/><path d="m639.71 505.67h15.29v13.33h1c3.41-9 11.46-14.38 22.27-14.38s18.43 5.43 22 14.38h.85c3.94-8.74 12.79-14.38 24.56-14.38 14.81 0 25.25 9.32 25.25 28v54.86h-15.93v-53.36c0-11.08-6.92-15.77-15.34-15.77-10.39 0-16.41 7.14-16.41 17v52.15h-15.86v-54.39c0-8.9-6.13-14.76-15-14.76-9 0-16.78 7.67-16.78 18.7v50.44h-15.9z"/><path d="m768.57 547.12c0-25.15 15-42.51 37.82-42.51 18.54 0 36.22 11.56 36.22 41.12v5.65h-58.17c.43 15.77 9.56 24.62 23.23 24.62 9.05 0 16-3.94 18.85-11.67l15.08 2.67c-3.62 13.32-16.25 22.11-34.09 22.11-24.13.04-38.94-16.58-38.94-41.99zm58.43-7.67c0-12.52-8.15-21.68-20.5-21.68-13 0-21.37 10.06-22 21.68z"/><path d="m853.79 505.67h16.46l16 60.09h.8l16.08-60.09h16.46l16 59.82h.79l15.93-59.82h16.49l-24 81.82h-16.27l-16.62-59.07h-1.22l-16.62 59.07h-16.2z"/><path d="m977.7 547c0-25.47 15.07-42.35 38.14-42.35s38.16 16.84 38.16 42.35c0 25.3-15.08 42.19-38.14 42.19s-38.16-16.93-38.16-42.19zm60.19-.06c0-15.66-7-29-22-29s-22.11 13.31-22.11 29 7 28.88 22.11 28.88 22-13.2 22-28.92z"/><path d="m1071.71 505.67h15.4v13h.85c3-8.79 11.19-14.22 20.78-14.22a65.58 65.58 0 0 1 6.76.37v15.24a37.22 37.22 0 0 0 -8.31-1c-11.29 0-19.55 7.72-19.55 18.43v50h-15.93z"/><path d="m1129.35 478.4h15.93v61.9h1.38l32.6-34.63h19.07l-33.13 35.11 35.37 46.71h-19.57l-27.81-37-7.93 7.93v29h-15.93z"/></g><path d="m40.5 246.59h132.5v34.89h-90.19v47.68h81.4v34.89h-81.4v82.67h-42.31z" fill="#333"/><path d="m199.1 256.17c0-11.53 10.16-21 22.47-21s22.58 9.48 22.58 21-10.17 21.1-22.58 21.1-22.47-9.47-22.47-21.1zm1.56 40.45h41.63v150.1h-41.63z" fill="#333"/><path d="m276.3 246.59h41.63v75.24h1.26c5.58-12.21 17.59-27.16 42.71-27.16 32.93 0 60.78 25.6 60.78 77.19 0 50.23-26.68 77.3-60.88 77.3-24.23 0-36.84-14-42.61-26.48h-1.85v24h-41zm72.31 169.41c20.42 0 31.56-18.17 31.56-44.36 0-26-10.94-43.88-31.56-43.88-20.23 0-31.56 17.1-31.56 43.88s11.53 44.36 31.56 44.36z" fill="#333"/><path d="m444.28 372.35c0-46.32 28.63-77.68 72.8-77.68 39.67 0 70.55 25.21 70.55 76.22v11.43h-102.21v.1c0 22.37 13.19 36.15 34 36.15 13.88 0 24.63-6 28.83-17.39l38.5 2.54c-5.86 27.85-30.88 45.93-68 45.93-46.23 0-74.47-29.71-74.47-77.3zm104.17-15.83c-.1-17.88-12.61-30.78-30.69-30.78-18.47 0-31.46 13.68-32.34 30.78z" fill="#333"/><path d="m614.8 296.62h40.36v26.19h1.56c5.47-18.57 19.25-28.34 36.06-28.34a62.39 62.39 0 0 1 13.09 1.47v36.93c-3.91-1.27-11.82-2.24-17.59-2.24-18.37 0-31.85 12.7-31.85 31.17v84.92h-41.63z" fill="#333"/></g></svg>